<?xml version="1.0" encoding="UTF-8" ?>
 <svg viewBox="0.5333999999999988 -62.9666  43.3832 38.303200000000004" xmlns="http://www.w3.org/2000/svg" version="1.0" overflow="visible">
  <defs>
   <g id="OCTAGONP">
    <path d="M -0.25 -0.1036 L -0.25 0.1036 L -0.1036 0.25 L 0.1036 0.25 L 0.25 0.1036 L 0.25 -0.1036 L 0.1036 -0.25 L -0.1036 -0.25 L -0.25 -0.1036 L -0.25 0.1036 " stroke-width="0.5"/>
   </g>
   <g id="ANNULUSV">
    <path d="M 0 -0.25 A 0.25 0.25 0 0  1 0.0 0.25 A 0.25 0.25 0 0  1 0.0 -0.25 " stroke-width="0.5"/>
   </g>
   <g id="ANNULUSP">
    <path d="M 0 -0.25 A 0.25 0.25 0 0  1 0.0 0.25 A 0.25 0.25 0 0  1 0.0 -0.25 " stroke-width="0.5"/>
   </g>
   <g id="SQUAREV">
    <polygon points="-0.5,-0.5 0.5,-0.5 0.5,0.5 -0.5,0.5 " fill="currentColor"/>
   </g>
   <g id="RECT">
    <polygon points="-0.5,-0.5 0.5,-0.5 0.5,0.5 -0.5,0.5 " fill="currentColor"/>
   </g>
   <g id="THERMALV">
    <path d="M -0.2379 0.45 L 0.2379 0.45 " stroke-width="0.1"/>
    <path d="M 0.2379 0.425 A 0.024999999999999994 0.024999999999999994 0 0  1 0.2379 0.475 " stroke-width="0.05"/>
    <path d="M -0.2379 0.475 A 0.024999999999999994 0.024999999999999994 0 0  1 -0.2379 0.425 " stroke-width="0.05"/>
    <path d="M 0.45 0.2379 L 0.45 -0.2379 " stroke-width="0.1"/>
    <path d="M 0.425 -0.2379 A 0.024999999999999994 0.024999999999999994 0 0  1 0.475 -0.2379 " stroke-width="0.05"/>
    <path d="M 0.475 0.2379 A 0.024999999999999994 0.024999999999999994 0 0  1 0.425 0.2379 " stroke-width="0.05"/>
    <path d="M 0.2379 -0.45 L -0.2379 -0.45 " stroke-width="0.1"/>
    <path d="M -0.2379 -0.425 A 0.024999999999999994 0.024999999999999994 0 0  1 -0.2379 -0.475 " stroke-width="0.05"/>
    <path d="M 0.2379 -0.475 A 0.024999999999999994 0.024999999999999994 0 0  1 0.2379 -0.425 " stroke-width="0.05"/>
    <path d="M -0.45 -0.2379 L -0.45 0.2379 " stroke-width="0.1"/>
    <path d="M -0.425 0.2379 A 0.024999999999999994 0.024999999999999994 0 0  1 -0.475 0.2379 " stroke-width="0.05"/>
    <path d="M -0.475 -0.2379 A 0.024999999999999994 0.024999999999999994 0 0  1 -0.425 -0.2379 " stroke-width="0.05"/>
   </g>
   <g id="ROUNDV">
    <path d="M 0 -0.25 A 0.25 0.25 0 0  1 0.0 0.25 A 0.25 0.25 0 0  1 0.0 -0.25 " stroke-width="0.5"/>
   </g>
   <g id="SQUAREP">
    <polygon points="-0.5,-0.5 0.5,-0.5 0.5,0.5 -0.5,0.5 " fill="currentColor"/>
   </g>
   <g id="OCTAGONV">
    <path d="M -0.25 -0.1036 L -0.25 0.1036 L -0.1036 0.25 L 0.1036 0.25 L 0.25 0.1036 L 0.25 -0.1036 L 0.1036 -0.25 L -0.1036 -0.25 L -0.25 -0.1036 L -0.25 0.1036 " stroke-width="0.5"/>
   </g>
   <g id="LONGP100">
    <path d="M -0.5 0 L 0.5 0 " stroke-width="1"/>
    <path d="M 0.5 -0.25 A 0.25 0.25 0 0  1 0.5 0.25 " stroke-width="0.5"/>
    <path d="M -0.5 0.25 A 0.25 0.25 0 0  1 -0.5 -0.25 " stroke-width="0.5"/>
   </g>
   <g id="THERMALP">
    <path d="M -0.2379 0.45 L 0.2379 0.45 " stroke-width="0.1"/>
    <path d="M 0.2379 0.425 A 0.024999999999999994 0.024999999999999994 0 0  1 0.2379 0.475 " stroke-width="0.05"/>
    <path d="M -0.2379 0.475 A 0.024999999999999994 0.024999999999999994 0 0  1 -0.2379 0.425 " stroke-width="0.05"/>
    <path d="M 0.45 0.2379 L 0.45 -0.2379 " stroke-width="0.1"/>
    <path d="M 0.425 -0.2379 A 0.024999999999999994 0.024999999999999994 0 0  1 0.475 -0.2379 " stroke-width="0.05"/>
    <path d="M 0.475 0.2379 A 0.024999999999999994 0.024999999999999994 0 0  1 0.425 0.2379 " stroke-width="0.05"/>
    <path d="M 0.2379 -0.45 L -0.2379 -0.45 " stroke-width="0.1"/>
    <path d="M -0.2379 -0.425 A 0.024999999999999994 0.024999999999999994 0 0  1 -0.2379 -0.475 " stroke-width="0.05"/>
    <path d="M 0.2379 -0.475 A 0.024999999999999994 0.024999999999999994 0 0  1 0.2379 -0.425 " stroke-width="0.05"/>
    <path d="M -0.45 -0.2379 L -0.45 0.2379 " stroke-width="0.1"/>
    <path d="M -0.425 0.2379 A 0.024999999999999994 0.024999999999999994 0 0  1 -0.475 0.2379 " stroke-width="0.05"/>
    <path d="M -0.475 -0.2379 A 0.024999999999999994 0.024999999999999994 0 0  1 -0.425 -0.2379 " stroke-width="0.05"/>
   </g>
   <g id="PIE">
    <path d="M 0 -0.25 A 0.25 0.25 0 0  1 0.0 0.25 A 0.25 0.25 0 0  1 0.0 -0.25 " stroke-width="0.5"/>
   </g>
   <g id="ROUNDP">
    <path d="M 0 -0.25 A 0.25 0.25 0 0  1 0.0 0.25 A 0.25 0.25 0 0  1 0.0 -0.25 " stroke-width="0.5"/>
   </g>
  </defs>
  <g id="draft" transform="matrix(1 0 0 -1 0 0)" stroke-width="0.0102108">
   <g id="ID_248" color="rgb(0,0,0)" stroke="currentColor" fill="none" stroke-width="0.0102108">
    <path d="M 29.845 51.435 L 36.195 51.435 " stroke-width="0.4064"/>
    <path d="M 36.195 51.3334 A 0.10160000000000124 0.10160000000000124 0 0  1 36.195 51.5366 " stroke-width="0.2032"/>
    <path d="M 29.845 51.5366 A 0.10160000000000124 0.10160000000000124 0 0  1 29.845 51.3334 " stroke-width="0.2032"/>
    <path d="M 36.195 51.435 L 36.195 57.785 " stroke-width="0.4064"/>
    <path d="M 36.2966 57.785 A 0.10159999999999769 0.10159999999999769 0 0  1 36.0934 57.785 " stroke-width="0.2032"/>
    <path d="M 36.0934 51.435 A 0.10159999999999769 0.10159999999999769 0 0  1 36.2966 51.435 " stroke-width="0.2032"/>
    <path d="M 36.195 57.785 L 31.115 57.785 " stroke-width="0.4064"/>
    <path d="M 31.115 57.8866 A 0.10160000000000124 0.10160000000000124 0 0  1 31.115 57.6834 " stroke-width="0.2032"/>
    <path d="M 36.195 57.6834 A 0.10160000000000124 0.10160000000000124 0 0  1 36.195 57.8866 " stroke-width="0.2032"/>
    <path d="M 31.115 57.785 L 29.845 56.515 " stroke-width="0.4064"/>
    <path d="M 29.7732 56.5868 A 0.1015405337783877 0.1015405337783877 0 0  1 29.9168 56.4432 " stroke-width="0.2032"/>
    <path d="M 31.1868 57.7132 A 0.10154053377838898 0.10154053377838898 0 0  1 31.0432 57.8568 " stroke-width="0.2032"/>
    <path d="M 29.845 56.515 L 29.845 51.435 " stroke-width="0.4064"/>
    <path d="M 29.7434 51.435 A 0.10159999999999947 0.10159999999999947 0 0  1 29.9466 51.435 " stroke-width="0.2032"/>
    <path d="M 29.9466 56.515 A 0.10159999999999947 0.10159999999999947 0 0  1 29.7434 56.515 " stroke-width="0.2032"/>
    <path d="M 29.845 51.435 L 29.845 45.085 " stroke-width="0.4064"/>
    <path d="M 29.7434 45.085 A 0.10159999999999947 0.10159999999999947 0 0  1 29.9466 45.085 " stroke-width="0.2032"/>
    <path d="M 29.9466 51.435 A 0.10159999999999947 0.10159999999999947 0 0  1 29.7434 51.435 " stroke-width="0.2032"/>
    <path d="M 29.845 45.085 L 36.195 45.085 " stroke-width="0.4064"/>
    <path d="M 36.195 44.9834 A 0.10159999999999769 0.10159999999999769 0 0  1 36.195 45.1866 " stroke-width="0.2032"/>
    <path d="M 29.845 45.1866 A 0.10159999999999769 0.10159999999999769 0 0  1 29.845 44.9834 " stroke-width="0.2032"/>
    <path d="M 36.195 45.085 L 36.195 51.435 " stroke-width="0.4064"/>
    <path d="M 36.2966 51.435 A 0.10159999999999769 0.10159999999999769 0 0  1 36.0934 51.435 " stroke-width="0.2032"/>
    <path d="M 36.0934 45.085 A 0.10159999999999769 0.10159999999999769 0 0  1 36.2966 45.085 " stroke-width="0.2032"/>
    <path d="M 29.845 45.085 L 29.845 38.735 " stroke-width="0.4064"/>
    <path d="M 29.7434 38.735 A 0.10159999999999947 0.10159999999999947 0 0  1 29.9466 38.735 " stroke-width="0.2032"/>
    <path d="M 29.9466 45.085 A 0.10159999999999947 0.10159999999999947 0 0  1 29.7434 45.085 " stroke-width="0.2032"/>
    <path d="M 29.845 38.735 L 36.195 38.735 " stroke-width="0.4064"/>
    <path d="M 36.195 38.6334 A 0.10159999999999769 0.10159999999999769 0 0  1 36.195 38.8366 " stroke-width="0.2032"/>
    <path d="M 29.845 38.8366 A 0.10159999999999769 0.10159999999999769 0 0  1 29.845 38.6334 " stroke-width="0.2032"/>
    <path d="M 36.195 38.735 L 36.195 43.815 " stroke-width="0.4064"/>
    <path d="M 36.2966 43.815 A 0.10159999999999769 0.10159999999999769 0 0  1 36.0934 43.815 " stroke-width="0.2032"/>
    <path d="M 36.0934 38.735 A 0.10159999999999769 0.10159999999999769 0 0  1 36.2966 38.735 " stroke-width="0.2032"/>
    <path d="M 36.195 43.815 L 36.195 45.085 " stroke-width="0.4064"/>
    <path d="M 36.2966 45.085 A 0.10159999999999769 0.10159999999999769 0 0  1 36.0934 45.085 " stroke-width="0.2032"/>
    <path d="M 36.0934 43.815 A 0.10159999999999769 0.10159999999999769 0 0  1 36.2966 43.815 " stroke-width="0.2032"/>
    <path d="M 29.845 38.735 L 29.845 34.925 " stroke-width="0.4064"/>
    <path d="M 29.7434 34.925 A 0.10159999999999947 0.10159999999999947 0 0  1 29.9466 34.925 " stroke-width="0.2032"/>
    <path d="M 29.9466 38.735 A 0.10159999999999947 0.10159999999999947 0 0  1 29.7434 38.735 " stroke-width="0.2032"/>
    <path d="M 36.195 32.385 L 36.195 37.465 " stroke-width="0.4064"/>
    <path d="M 36.2966 37.465 A 0.10159999999999769 0.10159999999999769 0 0  1 36.0934 37.465 " stroke-width="0.2032"/>
    <path d="M 36.0934 32.385 A 0.10159999999999769 0.10159999999999769 0 0  1 36.2966 32.385 " stroke-width="0.2032"/>
    <path d="M 36.195 37.465 L 36.195 38.735 " stroke-width="0.4064"/>
    <path d="M 36.2966 38.735 A 0.10159999999999769 0.10159999999999769 0 0  1 36.0934 38.735 " stroke-width="0.2032"/>
    <path d="M 36.0934 37.465 A 0.10159999999999769 0.10159999999999769 0 0  1 36.2966 37.465 " stroke-width="0.2032"/>
    <path d="M 31.115 57.785 L 31.115 62.865 " stroke-width="0.4064"/>
    <path d="M 31.2166 62.865 A 0.10159999999999947 0.10159999999999947 0 0  1 31.0134 62.865 " stroke-width="0.2032"/>
    <path d="M 31.0134 57.785 A 0.10159999999999947 0.10159999999999947 0 0  1 31.2166 57.785 " stroke-width="0.2032"/>
    <path d="M 31.115 62.865 L 24.765 62.865 " stroke-width="0.4064"/>
    <path d="M 24.765 62.9666 A 0.10160000000000124 0.10160000000000124 0 0  1 24.765 62.7634 " stroke-width="0.2032"/>
    <path d="M 31.115 62.7634 A 0.10160000000000124 0.10160000000000124 0 0  1 31.115 62.9666 " stroke-width="0.2032"/>
    <path d="M 24.765 62.865 L 24.765 56.515 " stroke-width="0.4064"/>
    <path d="M 24.6634 56.515 A 0.10159999999999947 0.10159999999999947 0 0  1 24.8666 56.515 " stroke-width="0.2032"/>
    <path d="M 24.8666 62.865 A 0.10159999999999947 0.10159999999999947 0 0  1 24.6634 62.865 " stroke-width="0.2032"/>
    <path d="M 24.765 56.515 L 29.845 56.515 " stroke-width="0.4064"/>
    <path d="M 29.845 56.4134 A 0.10159999999999769 0.10159999999999769 0 0  1 29.845 56.6166 " stroke-width="0.2032"/>
    <path d="M 24.765 56.6166 A 0.10159999999999769 0.10159999999999769 0 0  1 24.765 56.4134 " stroke-width="0.2032"/>
    <path d="M 24.765 56.515 L 18.415 56.515 " stroke-width="0.4064"/>
    <path d="M 18.415 56.6166 A 0.10159999999999769 0.10159999999999769 0 0  1 18.415 56.4134 " stroke-width="0.2032"/>
    <path d="M 24.765 56.4134 A 0.10159999999999769 0.10159999999999769 0 0  1 24.765 56.6166 " stroke-width="0.2032"/>
    <path d="M 18.415 56.515 L 18.415 62.865 " stroke-width="0.4064"/>
    <path d="M 18.5166 62.865 A 0.10159999999999947 0.10159999999999947 0 0  1 18.3134 62.865 " stroke-width="0.2032"/>
    <path d="M 18.3134 56.515 A 0.10159999999999947 0.10159999999999947 0 0  1 18.5166 56.515 " stroke-width="0.2032"/>
    <path d="M 18.415 62.865 L 24.765 62.865 " stroke-width="0.4064"/>
    <path d="M 24.765 62.7634 A 0.10160000000000124 0.10160000000000124 0 0  1 24.765 62.9666 " stroke-width="0.2032"/>
    <path d="M 18.415 62.9666 A 0.10160000000000124 0.10160000000000124 0 0  1 18.415 62.7634 " stroke-width="0.2032"/>
    <path d="M 18.415 56.515 L 12.065 56.515 " stroke-width="0.4064"/>
    <path d="M 12.065 56.6166 A 0.10159999999999769 0.10159999999999769 0 0  1 12.065 56.4134 " stroke-width="0.2032"/>
    <path d="M 18.415 56.4134 A 0.10159999999999769 0.10159999999999769 0 0  1 18.415 56.6166 " stroke-width="0.2032"/>
    <path d="M 12.065 56.515 L 12.065 62.865 " stroke-width="0.4064"/>
    <path d="M 12.1666 62.865 A 0.10160000000000036 0.10160000000000036 0 0  1 11.9634 62.865 " stroke-width="0.2032"/>
    <path d="M 11.9634 56.515 A 0.10160000000000036 0.10160000000000036 0 0  1 12.1666 56.515 " stroke-width="0.2032"/>
    <path d="M 12.065 62.865 L 18.415 62.865 " stroke-width="0.4064"/>
    <path d="M 18.415 62.7634 A 0.10160000000000124 0.10160000000000124 0 0  1 18.415 62.9666 " stroke-width="0.2032"/>
    <path d="M 12.065 62.9666 A 0.10160000000000124 0.10160000000000124 0 0  1 12.065 62.7634 " stroke-width="0.2032"/>
    <path d="M 12.065 56.515 L 6.985 56.515 " stroke-width="0.4064"/>
    <path d="M 6.985 56.6166 A 0.10159999999999769 0.10159999999999769 0 0  1 6.985 56.4134 " stroke-width="0.2032"/>
    <path d="M 12.065 56.4134 A 0.10159999999999769 0.10159999999999769 0 0  1 12.065 56.6166 " stroke-width="0.2032"/>
    <path d="M 6.985 56.515 L 5.715 57.785 " stroke-width="0.4064"/>
    <path d="M 5.7868 57.8568 A 0.10154053377838804 0.10154053377838804 0 0  1 5.6432 57.7132 " stroke-width="0.2032"/>
    <path d="M 6.9132 56.4432 A 0.10154053377838804 0.10154053377838804 0 0  1 7.0568 56.5868 " stroke-width="0.2032"/>
    <path d="M 5.715 57.785 L 5.715 62.865 " stroke-width="0.4064"/>
    <path d="M 5.8166 62.865 A 0.10159999999999991 0.10159999999999991 0 0  1 5.6134 62.865 " stroke-width="0.2032"/>
    <path d="M 5.6134 57.785 A 0.10159999999999991 0.10159999999999991 0 0  1 5.8166 57.785 " stroke-width="0.2032"/>
    <path d="M 5.715 62.865 L 12.065 62.865 " stroke-width="0.4064"/>
    <path d="M 12.065 62.7634 A 0.10160000000000124 0.10160000000000124 0 0  1 12.065 62.9666 " stroke-width="0.2032"/>
    <path d="M 5.715 62.9666 A 0.10160000000000124 0.10160000000000124 0 0  1 5.715 62.7634 " stroke-width="0.2032"/>
    <path d="M 5.715 57.785 L 0.635 57.785 " stroke-width="0.4064"/>
    <path d="M 0.635 57.8866 A 0.10160000000000124 0.10160000000000124 0 0  1 0.635 57.6834 " stroke-width="0.2032"/>
    <path d="M 5.715 57.6834 A 0.10160000000000124 0.10160000000000124 0 0  1 5.715 57.8866 " stroke-width="0.2032"/>
    <path d="M 0.635 57.785 L 0.635 51.435 " stroke-width="0.4064"/>
    <path d="M 0.5334 51.435 A 0.10160000000000002 0.10160000000000002 0 0  1 0.7366 51.435 " stroke-width="0.2032"/>
    <path d="M 0.7366 57.785 A 0.10160000000000002 0.10160000000000002 0 0  1 0.5334 57.785 " stroke-width="0.2032"/>
    <path d="M 0.635 51.435 L 6.985 51.435 " stroke-width="0.4064"/>
    <path d="M 6.985 51.3334 A 0.10160000000000124 0.10160000000000124 0 0  1 6.985 51.5366 " stroke-width="0.2032"/>
    <path d="M 0.635 51.5366 A 0.10160000000000124 0.10160000000000124 0 0  1 0.635 51.3334 " stroke-width="0.2032"/>
    <path d="M 6.985 51.435 L 6.985 56.515 " stroke-width="0.4064"/>
    <path d="M 7.0866 56.515 A 0.10159999999999991 0.10159999999999991 0 0  1 6.8834 56.515 " stroke-width="0.2032"/>
    <path d="M 6.8834 51.435 A 0.10159999999999991 0.10159999999999991 0 0  1 7.0866 51.435 " stroke-width="0.2032"/>
    <path d="M 0.635 51.435 L 0.635 45.085 " stroke-width="0.4064"/>
    <path d="M 0.5334 45.085 A 0.10160000000000002 0.10160000000000002 0 0  1 0.7366 45.085 " stroke-width="0.2032"/>
    <path d="M 0.7366 51.435 A 0.10160000000000002 0.10160000000000002 0 0  1 0.5334 51.435 " stroke-width="0.2032"/>
    <path d="M 0.635 45.085 L 6.985 45.085 " stroke-width="0.4064"/>
    <path d="M 6.985 44.9834 A 0.10159999999999769 0.10159999999999769 0 0  1 6.985 45.1866 " stroke-width="0.2032"/>
    <path d="M 0.635 45.1866 A 0.10159999999999769 0.10159999999999769 0 0  1 0.635 44.9834 " stroke-width="0.2032"/>
    <path d="M 6.985 45.085 L 6.985 51.435 " stroke-width="0.4064"/>
    <path d="M 7.0866 51.435 A 0.10159999999999991 0.10159999999999991 0 0  1 6.8834 51.435 " stroke-width="0.2032"/>
    <path d="M 6.8834 45.085 A 0.10159999999999991 0.10159999999999991 0 0  1 7.0866 45.085 " stroke-width="0.2032"/>
    <path d="M 0.635 45.085 L 0.635 38.735 " stroke-width="0.4064"/>
    <path d="M 0.5334 38.735 A 0.10160000000000002 0.10160000000000002 0 0  1 0.7366 38.735 " stroke-width="0.2032"/>
    <path d="M 0.7366 45.085 A 0.10160000000000002 0.10160000000000002 0 0  1 0.5334 45.085 " stroke-width="0.2032"/>
    <path d="M 0.635 38.735 L 6.985 38.735 " stroke-width="0.4064"/>
    <path d="M 6.985 38.6334 A 0.10159999999999769 0.10159999999999769 0 0  1 6.985 38.8366 " stroke-width="0.2032"/>
    <path d="M 0.635 38.8366 A 0.10159999999999769 0.10159999999999769 0 0  1 0.635 38.6334 " stroke-width="0.2032"/>
    <path d="M 6.985 38.735 L 6.985 45.085 " stroke-width="0.4064"/>
    <path d="M 7.0866 45.085 A 0.10159999999999991 0.10159999999999991 0 0  1 6.8834 45.085 " stroke-width="0.2032"/>
    <path d="M 6.8834 38.735 A 0.10159999999999991 0.10159999999999991 0 0  1 7.0866 38.735 " stroke-width="0.2032"/>
    <path d="M 0.635 38.735 L 0.635 32.385 " stroke-width="0.4064"/>
    <path d="M 0.5334 32.385 A 0.10160000000000002 0.10160000000000002 0 0  1 0.7366 32.385 " stroke-width="0.2032"/>
    <path d="M 0.7366 38.735 A 0.10160000000000002 0.10160000000000002 0 0  1 0.5334 38.735 " stroke-width="0.2032"/>
    <path d="M 6.985 34.925 L 6.985 38.735 " stroke-width="0.4064"/>
    <path d="M 7.0866 38.735 A 0.10159999999999991 0.10159999999999991 0 0  1 6.8834 38.735 " stroke-width="0.2032"/>
    <path d="M 6.8834 34.925 A 0.10159999999999991 0.10159999999999991 0 0  1 7.0866 34.925 " stroke-width="0.2032"/>
    <path d="M 0.635 31.115 L 0.635 24.765 " stroke-width="0.4064"/>
    <path d="M 0.5334 24.765 A 0.10160000000000002 0.10160000000000002 0 0  1 0.7366 24.765 " stroke-width="0.2032"/>
    <path d="M 0.7366 31.115 A 0.10160000000000002 0.10160000000000002 0 0  1 0.5334 31.115 " stroke-width="0.2032"/>
    <path d="M 0.635 24.765 L 6.985 24.765 " stroke-width="0.4064"/>
    <path d="M 6.985 24.6634 A 0.10159999999999947 0.10159999999999947 0 0  1 6.985 24.8666 " stroke-width="0.2032"/>
    <path d="M 0.635 24.8666 A 0.10159999999999947 0.10159999999999947 0 0  1 0.635 24.6634 " stroke-width="0.2032"/>
    <path d="M 6.985 24.765 L 6.985 28.575 " stroke-width="0.4064"/>
    <path d="M 7.0866 28.575 A 0.10159999999999991 0.10159999999999991 0 0  1 6.8834 28.575 " stroke-width="0.2032"/>
    <path d="M 6.8834 24.765 A 0.10159999999999991 0.10159999999999991 0 0  1 7.0866 24.765 " stroke-width="0.2032"/>
    <path d="M 6.985 28.575 L 12.065 28.575 " stroke-width="0.4064"/>
    <path d="M 12.065 28.4734 A 0.10159999999999947 0.10159999999999947 0 0  1 12.065 28.6766 " stroke-width="0.2032"/>
    <path d="M 6.985 28.6766 A 0.10159999999999947 0.10159999999999947 0 0  1 6.985 28.4734 " stroke-width="0.2032"/>
    <path d="M 12.065 28.575 L 12.065 34.925 " stroke-width="0.4064"/>
    <path d="M 12.1666 34.925 A 0.10160000000000036 0.10160000000000036 0 0  1 11.9634 34.925 " stroke-width="0.2032"/>
    <path d="M 11.9634 28.575 A 0.10160000000000036 0.10160000000000036 0 0  1 12.1666 28.575 " stroke-width="0.2032"/>
    <path d="M 12.065 34.925 L 6.985 34.925 " stroke-width="0.4064"/>
    <path d="M 6.985 35.0266 A 0.10160000000000124 0.10160000000000124 0 0  1 6.985 34.8234 " stroke-width="0.2032"/>
    <path d="M 12.065 34.8234 A 0.10160000000000124 0.10160000000000124 0 0  1 12.065 35.0266 " stroke-width="0.2032"/>
    <path d="M 0.635 31.115 L 5.715 31.115 " stroke-width="0.4064"/>
    <path d="M 5.715 31.0134 A 0.10159999999999947 0.10159999999999947 0 0  1 5.715 31.2166 " stroke-width="0.2032"/>
    <path d="M 0.635 31.2166 A 0.10159999999999947 0.10159999999999947 0 0  1 0.635 31.0134 " stroke-width="0.2032"/>
    <path d="M 5.715 31.115 L 5.715 32.385 " stroke-width="0.4064"/>
    <path d="M 5.8166 32.385 A 0.10159999999999991 0.10159999999999991 0 0  1 5.6134 32.385 " stroke-width="0.2032"/>
    <path d="M 5.6134 31.115 A 0.10159999999999991 0.10159999999999991 0 0  1 5.8166 31.115 " stroke-width="0.2032"/>
    <path d="M 5.715 32.385 L 0.635 32.385 " stroke-width="0.4064"/>
    <path d="M 0.635 32.4866 A 0.10160000000000124 0.10160000000000124 0 0  1 0.635 32.2834 " stroke-width="0.2032"/>
    <path d="M 5.715 32.2834 A 0.10160000000000124 0.10160000000000124 0 0  1 5.715 32.4866 " stroke-width="0.2032"/>
    <path d="M 5.715 32.385 L 5.715 33.02 " stroke-width="0.4064"/>
    <path d="M 5.8166 33.02 A 0.10159999999999991 0.10159999999999991 0 0  1 5.6134 33.02 " stroke-width="0.2032"/>
    <path d="M 5.6134 32.385 A 0.10159999999999991 0.10159999999999991 0 0  1 5.8166 32.385 " stroke-width="0.2032"/>
    <path d="M 5.715 33.02 L 6.985 34.29 " stroke-width="0.4064"/>
    <path d="M 7.0568 34.2182 A 0.10154053377838804 0.10154053377838804 0 0  1 6.9132 34.3618 " stroke-width="0.2032"/>
    <path d="M 5.6432 33.0918 A 0.10154053377838804 0.10154053377838804 0 0  1 5.7868 32.9482 " stroke-width="0.2032"/>
    <path d="M 6.985 34.29 L 6.985 34.925 " stroke-width="0.4064"/>
    <path d="M 7.0866 34.925 A 0.10159999999999991 0.10159999999999991 0 0  1 6.8834 34.925 " stroke-width="0.2032"/>
    <path d="M 6.8834 34.29 A 0.10159999999999991 0.10159999999999991 0 0  1 7.0866 34.29 " stroke-width="0.2032"/>
    <path d="M 5.715 31.115 L 5.715 30.48 " stroke-width="0.4064"/>
    <path d="M 5.6134 30.48 A 0.10159999999999991 0.10159999999999991 0 0  1 5.8166 30.48 " stroke-width="0.2032"/>
    <path d="M 5.8166 31.115 A 0.10159999999999991 0.10159999999999991 0 0  1 5.6134 31.115 " stroke-width="0.2032"/>
    <path d="M 5.715 30.48 L 6.985 29.21 " stroke-width="0.4064"/>
    <path d="M 6.9132 29.1382 A 0.10154053377838804 0.10154053377838804 0 0  1 7.0568 29.2818 " stroke-width="0.2032"/>
    <path d="M 5.7868 30.5518 A 0.10154053377838804 0.10154053377838804 0 0  1 5.6432 30.4082 " stroke-width="0.2032"/>
    <path d="M 6.985 29.21 L 6.985 28.575 " stroke-width="0.4064"/>
    <path d="M 6.8834 28.575 A 0.10159999999999991 0.10159999999999991 0 0  1 7.0866 28.575 " stroke-width="0.2032"/>
    <path d="M 7.0866 29.21 A 0.10159999999999991 0.10159999999999991 0 0  1 6.8834 29.21 " stroke-width="0.2032"/>
    <path d="M 12.065 34.925 L 18.415 34.925 " stroke-width="0.4064"/>
    <path d="M 18.415 34.8234 A 0.10160000000000124 0.10160000000000124 0 0  1 18.415 35.0266 " stroke-width="0.2032"/>
    <path d="M 12.065 35.0266 A 0.10160000000000124 0.10160000000000124 0 0  1 12.065 34.8234 " stroke-width="0.2032"/>
    <path d="M 18.415 34.925 L 18.415 28.575 " stroke-width="0.4064"/>
    <path d="M 18.3134 28.575 A 0.10159999999999947 0.10159999999999947 0 0  1 18.5166 28.575 " stroke-width="0.2032"/>
    <path d="M 18.5166 34.925 A 0.10159999999999947 0.10159999999999947 0 0  1 18.3134 34.925 " stroke-width="0.2032"/>
    <path d="M 18.415 28.575 L 12.065 28.575 " stroke-width="0.4064"/>
    <path d="M 12.065 28.6766 A 0.10159999999999947 0.10159999999999947 0 0  1 12.065 28.4734 " stroke-width="0.2032"/>
    <path d="M 18.415 28.4734 A 0.10159999999999947 0.10159999999999947 0 0  1 18.415 28.6766 " stroke-width="0.2032"/>
    <path d="M 18.415 34.925 L 24.765 34.925 " stroke-width="0.4064"/>
    <path d="M 24.765 34.8234 A 0.10160000000000124 0.10160000000000124 0 0  1 24.765 35.0266 " stroke-width="0.2032"/>
    <path d="M 18.415 35.0266 A 0.10160000000000124 0.10160000000000124 0 0  1 18.415 34.8234 " stroke-width="0.2032"/>
    <path d="M 24.765 34.925 L 24.765 28.575 " stroke-width="0.4064"/>
    <path d="M 24.6634 28.575 A 0.10159999999999947 0.10159999999999947 0 0  1 24.8666 28.575 " stroke-width="0.2032"/>
    <path d="M 24.8666 34.925 A 0.10159999999999947 0.10159999999999947 0 0  1 24.6634 34.925 " stroke-width="0.2032"/>
    <path d="M 24.765 28.575 L 18.415 28.575 " stroke-width="0.4064"/>
    <path d="M 18.415 28.6766 A 0.10159999999999947 0.10159999999999947 0 0  1 18.415 28.4734 " stroke-width="0.2032"/>
    <path d="M 24.765 28.4734 A 0.10159999999999947 0.10159999999999947 0 0  1 24.765 28.6766 " stroke-width="0.2032"/>
    <path d="M 24.765 34.925 L 29.845 34.925 " stroke-width="0.4064"/>
    <path d="M 29.845 34.8234 A 0.10160000000000124 0.10160000000000124 0 0  1 29.845 35.0266 " stroke-width="0.2032"/>
    <path d="M 24.765 35.0266 A 0.10160000000000124 0.10160000000000124 0 0  1 24.765 34.8234 " stroke-width="0.2032"/>
    <path d="M 29.845 34.925 L 29.845 34.29 " stroke-width="0.4064"/>
    <path d="M 29.7434 34.29 A 0.10159999999999947 0.10159999999999947 0 0  1 29.9466 34.29 " stroke-width="0.2032"/>
    <path d="M 29.9466 34.925 A 0.10159999999999947 0.10159999999999947 0 0  1 29.7434 34.925 " stroke-width="0.2032"/>
    <path d="M 29.845 34.29 L 31.115 33.02 " stroke-width="0.4064"/>
    <path d="M 31.0432 32.9482 A 0.10154053377838898 0.10154053377838898 0 0  1 31.1868 33.0918 " stroke-width="0.2032"/>
    <path d="M 29.9168 34.3618 A 0.1015405337783877 0.1015405337783877 0 0  1 29.7732 34.2182 " stroke-width="0.2032"/>
    <path d="M 31.115 33.02 L 31.115 32.385 " stroke-width="0.4064"/>
    <path d="M 31.0134 32.385 A 0.10159999999999947 0.10159999999999947 0 0  1 31.2166 32.385 " stroke-width="0.2032"/>
    <path d="M 31.2166 33.02 A 0.10159999999999947 0.10159999999999947 0 0  1 31.0134 33.02 " stroke-width="0.2032"/>
    <path d="M 31.115 32.385 L 31.115 31.115 " stroke-width="0.4064"/>
    <path d="M 31.0134 31.115 A 0.10159999999999947 0.10159999999999947 0 0  1 31.2166 31.115 " stroke-width="0.2032"/>
    <path d="M 31.2166 32.385 A 0.10159999999999947 0.10159999999999947 0 0  1 31.0134 32.385 " stroke-width="0.2032"/>
    <path d="M 31.115 31.115 L 31.115 30.48 " stroke-width="0.4064"/>
    <path d="M 31.0134 30.48 A 0.10159999999999947 0.10159999999999947 0 0  1 31.2166 30.48 " stroke-width="0.2032"/>
    <path d="M 31.2166 31.115 A 0.10159999999999947 0.10159999999999947 0 0  1 31.0134 31.115 " stroke-width="0.2032"/>
    <path d="M 31.115 30.48 L 29.845 29.21 " stroke-width="0.4064"/>
    <path d="M 29.7732 29.2818 A 0.1015405337783877 0.1015405337783877 0 0  1 29.9168 29.1382 " stroke-width="0.2032"/>
    <path d="M 31.1868 30.4082 A 0.10154053377838898 0.10154053377838898 0 0  1 31.0432 30.5518 " stroke-width="0.2032"/>
    <path d="M 29.845 29.21 L 29.845 28.575 " stroke-width="0.4064"/>
    <path d="M 29.7434 28.575 A 0.10159999999999947 0.10159999999999947 0 0  1 29.9466 28.575 " stroke-width="0.2032"/>
    <path d="M 29.9466 29.21 A 0.10159999999999947 0.10159999999999947 0 0  1 29.7434 29.21 " stroke-width="0.2032"/>
    <path d="M 29.845 28.575 L 24.765 28.575 " stroke-width="0.4064"/>
    <path d="M 24.765 28.6766 A 0.10159999999999947 0.10159999999999947 0 0  1 24.765 28.4734 " stroke-width="0.2032"/>
    <path d="M 29.845 28.4734 A 0.10159999999999947 0.10159999999999947 0 0  1 29.845 28.6766 " stroke-width="0.2032"/>
    <path d="M 31.115 32.385 L 36.195 32.385 " stroke-width="0.4064"/>
    <path d="M 36.195 32.2834 A 0.10160000000000124 0.10160000000000124 0 0  1 36.195 32.4866 " stroke-width="0.2032"/>
    <path d="M 31.115 32.4866 A 0.10160000000000124 0.10160000000000124 0 0  1 31.115 32.2834 " stroke-width="0.2032"/>
    <path d="M 31.115 31.115 L 36.195 31.115 " stroke-width="0.4064"/>
    <path d="M 36.195 31.0134 A 0.10159999999999947 0.10159999999999947 0 0  1 36.195 31.2166 " stroke-width="0.2032"/>
    <path d="M 31.115 31.2166 A 0.10159999999999947 0.10159999999999947 0 0  1 31.115 31.0134 " stroke-width="0.2032"/>
    <path d="M 36.195 31.115 L 36.195 24.765 " stroke-width="0.4064"/>
    <path d="M 36.0934 24.765 A 0.10159999999999769 0.10159999999999769 0 0  1 36.2966 24.765 " stroke-width="0.2032"/>
    <path d="M 36.2966 31.115 A 0.10159999999999769 0.10159999999999769 0 0  1 36.0934 31.115 " stroke-width="0.2032"/>
    <path d="M 36.195 24.765 L 29.845 24.765 " stroke-width="0.4064"/>
    <path d="M 29.845 24.8666 A 0.10159999999999947 0.10159999999999947 0 0  1 29.845 24.6634 " stroke-width="0.2032"/>
    <path d="M 36.195 24.6634 A 0.10159999999999947 0.10159999999999947 0 0  1 36.195 24.8666 " stroke-width="0.2032"/>
    <path d="M 29.845 24.765 L 29.845 28.575 " stroke-width="0.4064"/>
    <path d="M 29.9466 28.575 A 0.10159999999999947 0.10159999999999947 0 0  1 29.7434 28.575 " stroke-width="0.2032"/>
    <path d="M 29.7434 24.765 A 0.10159999999999947 0.10159999999999947 0 0  1 29.9466 24.765 " stroke-width="0.2032"/>
    <path d="M 37.465 43.815 L 37.465 37.465 " stroke-width="0.4064"/>
    <path d="M 37.3634 37.465 A 0.10160000000000124 0.10160000000000124 0 0  1 37.5666 37.465 " stroke-width="0.2032"/>
    <path d="M 37.5666 43.815 A 0.10160000000000124 0.10160000000000124 0 0  1 37.3634 43.815 " stroke-width="0.2032"/>
    <path d="M 37.465 37.465 L 43.815 37.465 " stroke-width="0.4064"/>
    <path d="M 43.815 37.3634 A 0.10160000000000124 0.10160000000000124 0 0  1 43.815 37.5666 " stroke-width="0.2032"/>
    <path d="M 37.465 37.5666 A 0.10160000000000124 0.10160000000000124 0 0  1 37.465 37.3634 " stroke-width="0.2032"/>
    <path d="M 43.815 37.465 L 43.815 43.815 " stroke-width="0.4064"/>
    <path d="M 43.9166 43.815 A 0.10160000000000124 0.10160000000000124 0 0  1 43.7134 43.815 " stroke-width="0.2032"/>
    <path d="M 43.7134 37.465 A 0.10160000000000124 0.10160000000000124 0 0  1 43.9166 37.465 " stroke-width="0.2032"/>
    <path d="M 43.815 43.815 L 37.465 43.815 " stroke-width="0.4064"/>
    <path d="M 37.465 43.9166 A 0.10160000000000124 0.10160000000000124 0 0  1 37.465 43.7134 " stroke-width="0.2032"/>
    <path d="M 43.815 43.7134 A 0.10160000000000124 0.10160000000000124 0 0  1 43.815 43.9166 " stroke-width="0.2032"/>
    <path d="M 37.465 43.815 L 36.195 43.815 " stroke-width="0.4064"/>
    <path d="M 36.195 43.9166 A 0.10160000000000124 0.10160000000000124 0 0  1 36.195 43.7134 " stroke-width="0.2032"/>
    <path d="M 37.465 43.7134 A 0.10160000000000124 0.10160000000000124 0 0  1 37.465 43.9166 " stroke-width="0.2032"/>
    <path d="M 37.465 37.465 L 36.195 37.465 " stroke-width="0.4064"/>
    <path d="M 36.195 37.5666 A 0.10160000000000124 0.10160000000000124 0 0  1 36.195 37.3634 " stroke-width="0.2032"/>
    <path d="M 37.465 37.3634 A 0.10160000000000124 0.10160000000000124 0 0  1 37.465 37.5666 " stroke-width="0.2032"/>
   </g>
   <g id="ID_0" color="rgb(0,0,0)" stroke="currentColor" fill="none" stroke-width="0.0102108"/>
  </g>
 </svg>