  0
SECTION
  2
HEADER
  9
$ACADVER
  1
AC1009
  9
$FILLMODE
 70
1
  9
$EXTMIN
 10
-14.3752
 20
-5.8250
 30
0.0000
  9
$EXTMAX
 10
95.3150
 20
91.8452
 30
0.0000
  0
ENDSEC
  0
SECTION
  2
TABLES
  0
TABLE
  2
LTYPE
 70
1
  0
LTYPE
  2
CONTINUOUS
 70
64
  3
Solid line
 72
65
 73
0
 40
0
  0
ENDTAB
  0
TABLE
  2
LAYER
 70
255
  0
LAYER
  2
248
 70
64
 62
251
  6
CONTINUOUS
  0
ENDTAB
  0
ENDSEC
  0
SECTION
  2
BLOCKS
  0
BLOCK
  8
0
  2
RECT
 70
64
 10
0.0000
 20
0.0000
 30
0.0000
  3
RECT
  0
SOLID
  8
0
 10
-0.5000
 20
-0.5000
 30
0.0000
 11
0.5000
 21
-0.5000
 31
0.0000
 12
-0.5000
 22
0.5000
 32
0.0000
 13
0.5000
 23
0.5000
 33
0.0000
  0
ENDBLK
  8
0
  0
BLOCK
  8
0
  2
PIE
 70
64
 10
0.0000
 20
0.0000
 30
0.0000
  3
PIE
  0
POLYLINE
  8
0
 66
1
 10
0.0000
 20
0.0000
 30
0.0000
 40
0.5000
 41
0.5000
 70
0
  0
VERTEX
  8
0
 10
0.0000
 20
-0.2500
 30
0.0000
 42
1.0000
  0
VERTEX
  8
0
 10
0.0000
 20
0.2500
 30
0.0000
 42
1.0000
  0
VERTEX
  8
0
 10
0.0000
 20
-0.2500
 30
0.0000
  0
SEQEND
  8
0
  0
ENDBLK
  8
0
  0
BLOCK
  8
0
  2
OCTAGONP
 70
64
 10
0.0000
 20
0.0000
 30
0.0000
  3
OCTAGONP
  0
POLYLINE
  8
0
 66
1
 10
0.0000
 20
0.0000
 30
0.0000
 40
0.5000
 41
0.5000
 70
0
  0
VERTEX
  8
0
 10
-0.2500
 20
-0.1036
 30
0.0000
  0
VERTEX
  8
0
 10
-0.2500
 20
0.1036
 30
0.0000
  0
VERTEX
  8
0
 10
-0.1036
 20
0.2500
 30
0.0000
  0
VERTEX
  8
0
 10
0.1036
 20
0.2500
 30
0.0000
  0
VERTEX
  8
0
 10
0.2500
 20
0.1036
 30
0.0000
  0
VERTEX
  8
0
 10
0.2500
 20
-0.1036
 30
0.0000
  0
VERTEX
  8
0
 10
0.1036
 20
-0.2500
 30
0.0000
  0
VERTEX
  8
0
 10
-0.1036
 20
-0.2500
 30
0.0000
  0
VERTEX
  8
0
 10
-0.2500
 20
-0.1036
 30
0.0000
  0
VERTEX
  8
0
 10
-0.2500
 20
0.1036
 30
0.0000
  0
SEQEND
  8
0
  0
ENDBLK
  8
0
  0
BLOCK
  8
0
  2
SQUAREP
 70
64
 10
0.0000
 20
0.0000
 30
0.0000
  3
SQUAREP
  0
SOLID
  8
0
 10
-0.5000
 20
-0.5000
 30
0.0000
 11
0.5000
 21
-0.5000
 31
0.0000
 12
-0.5000
 22
0.5000
 32
0.0000
 13
0.5000
 23
0.5000
 33
0.0000
  0
ENDBLK
  8
0
  0
BLOCK
  8
0
  2
ROUNDP
 70
64
 10
0.0000
 20
0.0000
 30
0.0000
  3
ROUNDP
  0
POLYLINE
  8
0
 66
1
 10
0.0000
 20
0.0000
 30
0.0000
 40
0.5000
 41
0.5000
 70
0
  0
VERTEX
  8
0
 10
0.0000
 20
-0.2500
 30
0.0000
 42
1.0000
  0
VERTEX
  8
0
 10
0.0000
 20
0.2500
 30
0.0000
 42
1.0000
  0
VERTEX
  8
0
 10
0.0000
 20
-0.2500
 30
0.0000
  0
SEQEND
  8
0
  0
ENDBLK
  8
0
  0
BLOCK
  8
0
  2
ANNULUSP
 70
64
 10
0.0000
 20
0.0000
 30
0.0000
  3
ANNULUSP
  0
POLYLINE
  8
0
 66
1
 10
0.0000
 20
0.0000
 30
0.0000
 40
0.5000
 41
0.5000
 70
0
  0
VERTEX
  8
0
 10
0.0000
 20
-0.2500
 30
0.0000
 42
1.0000
  0
VERTEX
  8
0
 10
0.0000
 20
0.2500
 30
0.0000
 42
1.0000
  0
VERTEX
  8
0
 10
0.0000
 20
-0.2500
 30
0.0000
  0
SEQEND
  8
0
  0
ENDBLK
  8
0
  0
BLOCK
  8
0
  2
THERMALP
 70
64
 10
0.0000
 20
0.0000
 30
0.0000
  3
THERMALP
  0
POLYLINE
  8
0
 66
1
 10
0.0000
 20
0.0000
 30
0.0000
 40
0.1000
 41
0.1000
 70
0
  0
VERTEX
  8
0
 10
-0.2379
 20
0.4500
 30
0.0000
  0
VERTEX
  8
0
 10
0.2379
 20
0.4500
 30
0.0000
  0
SEQEND
  8
0
  0
POLYLINE
  8
0
 66
1
 10
0.0000
 20
0.0000
 30
0.0000
 40
0.0500
 41
0.0500
 70
0
  0
VERTEX
  8
0
 10
0.2379
 20
0.4250
 30
0.0000
 42
1.0000
  0
VERTEX
  8
0
 10
0.2379
 20
0.4750
 30
0.0000
  0
SEQEND
  8
0
  0
POLYLINE
  8
0
 66
1
 10
0.0000
 20
0.0000
 30
0.0000
 40
0.0500
 41
0.0500
 70
0
  0
VERTEX
  8
0
 10
-0.2379
 20
0.4750
 30
0.0000
 42
1.0000
  0
VERTEX
  8
0
 10
-0.2379
 20
0.4250
 30
0.0000
  0
SEQEND
  8
0
  0
POLYLINE
  8
0
 66
1
 10
0.0000
 20
0.0000
 30
0.0000
 40
0.1000
 41
0.1000
 70
0
  0
VERTEX
  8
0
 10
0.4500
 20
0.2379
 30
0.0000
  0
VERTEX
  8
0
 10
0.4500
 20
-0.2379
 30
0.0000
  0
SEQEND
  8
0
  0
POLYLINE
  8
0
 66
1
 10
0.0000
 20
0.0000
 30
0.0000
 40
0.0500
 41
0.0500
 70
0
  0
VERTEX
  8
0
 10
0.4250
 20
-0.2379
 30
0.0000
 42
1.0000
  0
VERTEX
  8
0
 10
0.4750
 20
-0.2379
 30
0.0000
  0
SEQEND
  8
0
  0
POLYLINE
  8
0
 66
1
 10
0.0000
 20
0.0000
 30
0.0000
 40
0.0500
 41
0.0500
 70
0
  0
VERTEX
  8
0
 10
0.4750
 20
0.2379
 30
0.0000
 42
1.0000
  0
VERTEX
  8
0
 10
0.4250
 20
0.2379
 30
0.0000
  0
SEQEND
  8
0
  0
POLYLINE
  8
0
 66
1
 10
0.0000
 20
0.0000
 30
0.0000
 40
0.1000
 41
0.1000
 70
0
  0
VERTEX
  8
0
 10
0.2379
 20
-0.4500
 30
0.0000
  0
VERTEX
  8
0
 10
-0.2379
 20
-0.4500
 30
0.0000
  0
SEQEND
  8
0
  0
POLYLINE
  8
0
 66
1
 10
0.0000
 20
0.0000
 30
0.0000
 40
0.0500
 41
0.0500
 70
0
  0
VERTEX
  8
0
 10
-0.2379
 20
-0.4250
 30
0.0000
 42
1.0000
  0
VERTEX
  8
0
 10
-0.2379
 20
-0.4750
 30
0.0000
  0
SEQEND
  8
0
  0
POLYLINE
  8
0
 66
1
 10
0.0000
 20
0.0000
 30
0.0000
 40
0.0500
 41
0.0500
 70
0
  0
VERTEX
  8
0
 10
0.2379
 20
-0.4750
 30
0.0000
 42
1.0000
  0
VERTEX
  8
0
 10
0.2379
 20
-0.4250
 30
0.0000
  0
SEQEND
  8
0
  0
POLYLINE
  8
0
 66
1
 10
0.0000
 20
0.0000
 30
0.0000
 40
0.1000
 41
0.1000
 70
0
  0
VERTEX
  8
0
 10
-0.4500
 20
-0.2379
 30
0.0000
  0
VERTEX
  8
0
 10
-0.4500
 20
0.2379
 30
0.0000
  0
SEQEND
  8
0
  0
POLYLINE
  8
0
 66
1
 10
0.0000
 20
0.0000
 30
0.0000
 40
0.0500
 41
0.0500
 70
0
  0
VERTEX
  8
0
 10
-0.4250
 20
0.2379
 30
0.0000
 42
1.0000
  0
VERTEX
  8
0
 10
-0.4750
 20
0.2379
 30
0.0000
  0
SEQEND
  8
0
  0
POLYLINE
  8
0
 66
1
 10
0.0000
 20
0.0000
 30
0.0000
 40
0.0500
 41
0.0500
 70
0
  0
VERTEX
  8
0
 10
-0.4750
 20
-0.2379
 30
0.0000
 42
1.0000
  0
VERTEX
  8
0
 10
-0.4250
 20
-0.2379
 30
0.0000
  0
SEQEND
  8
0
  0
ENDBLK
  8
0
  0
BLOCK
  8
0
  2
OCTAGONV
 70
64
 10
0.0000
 20
0.0000
 30
0.0000
  3
OCTAGONV
  0
POLYLINE
  8
0
 66
1
 10
0.0000
 20
0.0000
 30
0.0000
 40
0.5000
 41
0.5000
 70
0
  0
VERTEX
  8
0
 10
-0.2500
 20
-0.1036
 30
0.0000
  0
VERTEX
  8
0
 10
-0.2500
 20
0.1036
 30
0.0000
  0
VERTEX
  8
0
 10
-0.1036
 20
0.2500
 30
0.0000
  0
VERTEX
  8
0
 10
0.1036
 20
0.2500
 30
0.0000
  0
VERTEX
  8
0
 10
0.2500
 20
0.1036
 30
0.0000
  0
VERTEX
  8
0
 10
0.2500
 20
-0.1036
 30
0.0000
  0
VERTEX
  8
0
 10
0.1036
 20
-0.2500
 30
0.0000
  0
VERTEX
  8
0
 10
-0.1036
 20
-0.2500
 30
0.0000
  0
VERTEX
  8
0
 10
-0.2500
 20
-0.1036
 30
0.0000
  0
VERTEX
  8
0
 10
-0.2500
 20
0.1036
 30
0.0000
  0
SEQEND
  8
0
  0
ENDBLK
  8
0
  0
BLOCK
  8
0
  2
SQUAREV
 70
64
 10
0.0000
 20
0.0000
 30
0.0000
  3
SQUAREV
  0
SOLID
  8
0
 10
-0.5000
 20
-0.5000
 30
0.0000
 11
0.5000
 21
-0.5000
 31
0.0000
 12
-0.5000
 22
0.5000
 32
0.0000
 13
0.5000
 23
0.5000
 33
0.0000
  0
ENDBLK
  8
0
  0
BLOCK
  8
0
  2
ROUNDV
 70
64
 10
0.0000
 20
0.0000
 30
0.0000
  3
ROUNDV
  0
POLYLINE
  8
0
 66
1
 10
0.0000
 20
0.0000
 30
0.0000
 40
0.5000
 41
0.5000
 70
0
  0
VERTEX
  8
0
 10
0.0000
 20
-0.2500
 30
0.0000
 42
1.0000
  0
VERTEX
  8
0
 10
0.0000
 20
0.2500
 30
0.0000
 42
1.0000
  0
VERTEX
  8
0
 10
0.0000
 20
-0.2500
 30
0.0000
  0
SEQEND
  8
0
  0
ENDBLK
  8
0
  0
BLOCK
  8
0
  2
ANNULUSV
 70
64
 10
0.0000
 20
0.0000
 30
0.0000
  3
ANNULUSV
  0
POLYLINE
  8
0
 66
1
 10
0.0000
 20
0.0000
 30
0.0000
 40
0.5000
 41
0.5000
 70
0
  0
VERTEX
  8
0
 10
0.0000
 20
-0.2500
 30
0.0000
 42
1.0000
  0
VERTEX
  8
0
 10
0.0000
 20
0.2500
 30
0.0000
 42
1.0000
  0
VERTEX
  8
0
 10
0.0000
 20
-0.2500
 30
0.0000
  0
SEQEND
  8
0
  0
ENDBLK
  8
0
  0
BLOCK
  8
0
  2
THERMALV
 70
64
 10
0.0000
 20
0.0000
 30
0.0000
  3
THERMALV
  0
POLYLINE
  8
0
 66
1
 10
0.0000
 20
0.0000
 30
0.0000
 40
0.1000
 41
0.1000
 70
0
  0
VERTEX
  8
0
 10
-0.2379
 20
0.4500
 30
0.0000
  0
VERTEX
  8
0
 10
0.2379
 20
0.4500
 30
0.0000
  0
SEQEND
  8
0
  0
POLYLINE
  8
0
 66
1
 10
0.0000
 20
0.0000
 30
0.0000
 40
0.0500
 41
0.0500
 70
0
  0
VERTEX
  8
0
 10
0.2379
 20
0.4250
 30
0.0000
 42
1.0000
  0
VERTEX
  8
0
 10
0.2379
 20
0.4750
 30
0.0000
  0
SEQEND
  8
0
  0
POLYLINE
  8
0
 66
1
 10
0.0000
 20
0.0000
 30
0.0000
 40
0.0500
 41
0.0500
 70
0
  0
VERTEX
  8
0
 10
-0.2379
 20
0.4750
 30
0.0000
 42
1.0000
  0
VERTEX
  8
0
 10
-0.2379
 20
0.4250
 30
0.0000
  0
SEQEND
  8
0
  0
POLYLINE
  8
0
 66
1
 10
0.0000
 20
0.0000
 30
0.0000
 40
0.1000
 41
0.1000
 70
0
  0
VERTEX
  8
0
 10
0.4500
 20
0.2379
 30
0.0000
  0
VERTEX
  8
0
 10
0.4500
 20
-0.2379
 30
0.0000
  0
SEQEND
  8
0
  0
POLYLINE
  8
0
 66
1
 10
0.0000
 20
0.0000
 30
0.0000
 40
0.0500
 41
0.0500
 70
0
  0
VERTEX
  8
0
 10
0.4250
 20
-0.2379
 30
0.0000
 42
1.0000
  0
VERTEX
  8
0
 10
0.4750
 20
-0.2379
 30
0.0000
  0
SEQEND
  8
0
  0
POLYLINE
  8
0
 66
1
 10
0.0000
 20
0.0000
 30
0.0000
 40
0.0500
 41
0.0500
 70
0
  0
VERTEX
  8
0
 10
0.4750
 20
0.2379
 30
0.0000
 42
1.0000
  0
VERTEX
  8
0
 10
0.4250
 20
0.2379
 30
0.0000
  0
SEQEND
  8
0
  0
POLYLINE
  8
0
 66
1
 10
0.0000
 20
0.0000
 30
0.0000
 40
0.1000
 41
0.1000
 70
0
  0
VERTEX
  8
0
 10
0.2379
 20
-0.4500
 30
0.0000
  0
VERTEX
  8
0
 10
-0.2379
 20
-0.4500
 30
0.0000
  0
SEQEND
  8
0
  0
POLYLINE
  8
0
 66
1
 10
0.0000
 20
0.0000
 30
0.0000
 40
0.0500
 41
0.0500
 70
0
  0
VERTEX
  8
0
 10
-0.2379
 20
-0.4250
 30
0.0000
 42
1.0000
  0
VERTEX
  8
0
 10
-0.2379
 20
-0.4750
 30
0.0000
  0
SEQEND
  8
0
  0
POLYLINE
  8
0
 66
1
 10
0.0000
 20
0.0000
 30
0.0000
 40
0.0500
 41
0.0500
 70
0
  0
VERTEX
  8
0
 10
0.2379
 20
-0.4750
 30
0.0000
 42
1.0000
  0
VERTEX
  8
0
 10
0.2379
 20
-0.4250
 30
0.0000
  0
SEQEND
  8
0
  0
POLYLINE
  8
0
 66
1
 10
0.0000
 20
0.0000
 30
0.0000
 40
0.1000
 41
0.1000
 70
0
  0
VERTEX
  8
0
 10
-0.4500
 20
-0.2379
 30
0.0000
  0
VERTEX
  8
0
 10
-0.4500
 20
0.2379
 30
0.0000
  0
SEQEND
  8
0
  0
POLYLINE
  8
0
 66
1
 10
0.0000
 20
0.0000
 30
0.0000
 40
0.0500
 41
0.0500
 70
0
  0
VERTEX
  8
0
 10
-0.4250
 20
0.2379
 30
0.0000
 42
1.0000
  0
VERTEX
  8
0
 10
-0.4750
 20
0.2379
 30
0.0000
  0
SEQEND
  8
0
  0
POLYLINE
  8
0
 66
1
 10
0.0000
 20
0.0000
 30
0.0000
 40
0.0500
 41
0.0500
 70
0
  0
VERTEX
  8
0
 10
-0.4750
 20
-0.2379
 30
0.0000
 42
1.0000
  0
VERTEX
  8
0
 10
-0.4250
 20
-0.2379
 30
0.0000
  0
SEQEND
  8
0
  0
ENDBLK
  8
0
  0
BLOCK
  8
0
  2
LONGP100
 70
64
 10
0.0000
 20
0.0000
 30
0.0000
  3
LONGP100
  0
POLYLINE
  8
0
 66
1
 10
0.0000
 20
0.0000
 30
0.0000
 40
1.0000
 41
1.0000
 70
0
  0
VERTEX
  8
0
 10
-0.5000
 20
0.0000
 30
0.0000
  0
VERTEX
  8
0
 10
0.5000
 20
0.0000
 30
0.0000
  0
SEQEND
  8
0
  0
POLYLINE
  8
0
 66
1
 10
0.0000
 20
0.0000
 30
0.0000
 40
0.5000
 41
0.5000
 70
0
  0
VERTEX
  8
0
 10
0.5000
 20
-0.2500
 30
0.0000
 42
1.0000
  0
VERTEX
  8
0
 10
0.5000
 20
0.2500
 30
0.0000
  0
SEQEND
  8
0
  0
POLYLINE
  8
0
 66
1
 10
0.0000
 20
0.0000
 30
0.0000
 40
0.5000
 41
0.5000
 70
0
  0
VERTEX
  8
0
 10
-0.5000
 20
0.2500
 30
0.0000
 42
1.0000
  0
VERTEX
  8
0
 10
-0.5000
 20
-0.2500
 30
0.0000
  0
SEQEND
  8
0
  0
ENDBLK
  8
0
  0
ENDSEC
  0
SECTION
  2
ENTITIES
  0
POLYLINE
  8
248
 66
1
 10
0.0000
 20
0.0000
 30
0.0000
 40
0.4064
 41
0.4064
 70
0
  0
VERTEX
  8
248
 10
29.8450
 20
51.4350
 30
0.0000
  0
VERTEX
  8
248
 10
36.1950
 20
51.4350
 30
0.0000
  0
SEQEND
  8
0
  0
POLYLINE
  8
248
 66
1
 10
0.0000
 20
0.0000
 30
0.0000
 40
0.2032
 41
0.2032
 70
0
  0
VERTEX
  8
248
 10
36.1950
 20
51.3334
 30
0.0000
 42
1.0000
  0
VERTEX
  8
248
 10
36.1950
 20
51.5366
 30
0.0000
  0
SEQEND
  8
0
  0
POLYLINE
  8
248
 66
1
 10
0.0000
 20
0.0000
 30
0.0000
 40
0.2032
 41
0.2032
 70
0
  0
VERTEX
  8
248
 10
29.8450
 20
51.5366
 30
0.0000
 42
1.0000
  0
VERTEX
  8
248
 10
29.8450
 20
51.3334
 30
0.0000
  0
SEQEND
  8
0
  0
POLYLINE
  8
248
 66
1
 10
0.0000
 20
0.0000
 30
0.0000
 40
0.4064
 41
0.4064
 70
0
  0
VERTEX
  8
248
 10
36.1950
 20
51.4350
 30
0.0000
  0
VERTEX
  8
248
 10
36.1950
 20
57.7850
 30
0.0000
  0
SEQEND
  8
0
  0
POLYLINE
  8
248
 66
1
 10
0.0000
 20
0.0000
 30
0.0000
 40
0.2032
 41
0.2032
 70
0
  0
VERTEX
  8
248
 10
36.2966
 20
57.7850
 30
0.0000
 42
1.0000
  0
VERTEX
  8
248
 10
36.0934
 20
57.7850
 30
0.0000
  0
SEQEND
  8
0
  0
POLYLINE
  8
248
 66
1
 10
0.0000
 20
0.0000
 30
0.0000
 40
0.2032
 41
0.2032
 70
0
  0
VERTEX
  8
248
 10
36.0934
 20
51.4350
 30
0.0000
 42
1.0000
  0
VERTEX
  8
248
 10
36.2966
 20
51.4350
 30
0.0000
  0
SEQEND
  8
0
  0
POLYLINE
  8
248
 66
1
 10
0.0000
 20
0.0000
 30
0.0000
 40
0.4064
 41
0.4064
 70
0
  0
VERTEX
  8
248
 10
36.1950
 20
57.7850
 30
0.0000
  0
VERTEX
  8
248
 10
31.1150
 20
57.7850
 30
0.0000
  0
SEQEND
  8
0
  0
POLYLINE
  8
248
 66
1
 10
0.0000
 20
0.0000
 30
0.0000
 40
0.2032
 41
0.2032
 70
0
  0
VERTEX
  8
248
 10
31.1150
 20
57.8866
 30
0.0000
 42
1.0000
  0
VERTEX
  8
248
 10
31.1150
 20
57.6834
 30
0.0000
  0
SEQEND
  8
0
  0
POLYLINE
  8
248
 66
1
 10
0.0000
 20
0.0000
 30
0.0000
 40
0.2032
 41
0.2032
 70
0
  0
VERTEX
  8
248
 10
36.1950
 20
57.6834
 30
0.0000
 42
1.0000
  0
VERTEX
  8
248
 10
36.1950
 20
57.8866
 30
0.0000
  0
SEQEND
  8
0
  0
POLYLINE
  8
248
 66
1
 10
0.0000
 20
0.0000
 30
0.0000
 40
0.4064
 41
0.4064
 70
0
  0
VERTEX
  8
248
 10
31.1150
 20
57.7850
 30
0.0000
  0
VERTEX
  8
248
 10
29.8450
 20
56.5150
 30
0.0000
  0
SEQEND
  8
0
  0
POLYLINE
  8
248
 66
1
 10
0.0000
 20
0.0000
 30
0.0000
 40
0.2032
 41
0.2032
 70
0
  0
VERTEX
  8
248
 10
29.7732
 20
56.5868
 30
0.0000
 42
1.0000
  0
VERTEX
  8
248
 10
29.9168
 20
56.4432
 30
0.0000
  0
SEQEND
  8
0
  0
POLYLINE
  8
248
 66
1
 10
0.0000
 20
0.0000
 30
0.0000
 40
0.2032
 41
0.2032
 70
0
  0
VERTEX
  8
248
 10
31.1868
 20
57.7132
 30
0.0000
 42
1.0000
  0
VERTEX
  8
248
 10
31.0432
 20
57.8568
 30
0.0000
  0
SEQEND
  8
0
  0
POLYLINE
  8
248
 66
1
 10
0.0000
 20
0.0000
 30
0.0000
 40
0.4064
 41
0.4064
 70
0
  0
VERTEX
  8
248
 10
29.8450
 20
56.5150
 30
0.0000
  0
VERTEX
  8
248
 10
29.8450
 20
51.4350
 30
0.0000
  0
SEQEND
  8
0
  0
POLYLINE
  8
248
 66
1
 10
0.0000
 20
0.0000
 30
0.0000
 40
0.2032
 41
0.2032
 70
0
  0
VERTEX
  8
248
 10
29.7434
 20
51.4350
 30
0.0000
 42
1.0000
  0
VERTEX
  8
248
 10
29.9466
 20
51.4350
 30
0.0000
  0
SEQEND
  8
0
  0
POLYLINE
  8
248
 66
1
 10
0.0000
 20
0.0000
 30
0.0000
 40
0.2032
 41
0.2032
 70
0
  0
VERTEX
  8
248
 10
29.9466
 20
56.5150
 30
0.0000
 42
1.0000
  0
VERTEX
  8
248
 10
29.7434
 20
56.5150
 30
0.0000
  0
SEQEND
  8
0
  0
POLYLINE
  8
248
 66
1
 10
0.0000
 20
0.0000
 30
0.0000
 40
0.4064
 41
0.4064
 70
0
  0
VERTEX
  8
248
 10
29.8450
 20
51.4350
 30
0.0000
  0
VERTEX
  8
248
 10
29.8450
 20
45.0850
 30
0.0000
  0
SEQEND
  8
0
  0
POLYLINE
  8
248
 66
1
 10
0.0000
 20
0.0000
 30
0.0000
 40
0.2032
 41
0.2032
 70
0
  0
VERTEX
  8
248
 10
29.7434
 20
45.0850
 30
0.0000
 42
1.0000
  0
VERTEX
  8
248
 10
29.9466
 20
45.0850
 30
0.0000
  0
SEQEND
  8
0
  0
POLYLINE
  8
248
 66
1
 10
0.0000
 20
0.0000
 30
0.0000
 40
0.2032
 41
0.2032
 70
0
  0
VERTEX
  8
248
 10
29.9466
 20
51.4350
 30
0.0000
 42
1.0000
  0
VERTEX
  8
248
 10
29.7434
 20
51.4350
 30
0.0000
  0
SEQEND
  8
0
  0
POLYLINE
  8
248
 66
1
 10
0.0000
 20
0.0000
 30
0.0000
 40
0.4064
 41
0.4064
 70
0
  0
VERTEX
  8
248
 10
29.8450
 20
45.0850
 30
0.0000
  0
VERTEX
  8
248
 10
36.1950
 20
45.0850
 30
0.0000
  0
SEQEND
  8
0
  0
POLYLINE
  8
248
 66
1
 10
0.0000
 20
0.0000
 30
0.0000
 40
0.2032
 41
0.2032
 70
0
  0
VERTEX
  8
248
 10
36.1950
 20
44.9834
 30
0.0000
 42
1.0000
  0
VERTEX
  8
248
 10
36.1950
 20
45.1866
 30
0.0000
  0
SEQEND
  8
0
  0
POLYLINE
  8
248
 66
1
 10
0.0000
 20
0.0000
 30
0.0000
 40
0.2032
 41
0.2032
 70
0
  0
VERTEX
  8
248
 10
29.8450
 20
45.1866
 30
0.0000
 42
1.0000
  0
VERTEX
  8
248
 10
29.8450
 20
44.9834
 30
0.0000
  0
SEQEND
  8
0
  0
POLYLINE
  8
248
 66
1
 10
0.0000
 20
0.0000
 30
0.0000
 40
0.4064
 41
0.4064
 70
0
  0
VERTEX
  8
248
 10
36.1950
 20
45.0850
 30
0.0000
  0
VERTEX
  8
248
 10
36.1950
 20
51.4350
 30
0.0000
  0
SEQEND
  8
0
  0
POLYLINE
  8
248
 66
1
 10
0.0000
 20
0.0000
 30
0.0000
 40
0.2032
 41
0.2032
 70
0
  0
VERTEX
  8
248
 10
36.2966
 20
51.4350
 30
0.0000
 42
1.0000
  0
VERTEX
  8
248
 10
36.0934
 20
51.4350
 30
0.0000
  0
SEQEND
  8
0
  0
POLYLINE
  8
248
 66
1
 10
0.0000
 20
0.0000
 30
0.0000
 40
0.2032
 41
0.2032
 70
0
  0
VERTEX
  8
248
 10
36.0934
 20
45.0850
 30
0.0000
 42
1.0000
  0
VERTEX
  8
248
 10
36.2966
 20
45.0850
 30
0.0000
  0
SEQEND
  8
0
  0
POLYLINE
  8
248
 66
1
 10
0.0000
 20
0.0000
 30
0.0000
 40
0.4064
 41
0.4064
 70
0
  0
VERTEX
  8
248
 10
29.8450
 20
45.0850
 30
0.0000
  0
VERTEX
  8
248
 10
29.8450
 20
38.7350
 30
0.0000
  0
SEQEND
  8
0
  0
POLYLINE
  8
248
 66
1
 10
0.0000
 20
0.0000
 30
0.0000
 40
0.2032
 41
0.2032
 70
0
  0
VERTEX
  8
248
 10
29.7434
 20
38.7350
 30
0.0000
 42
1.0000
  0
VERTEX
  8
248
 10
29.9466
 20
38.7350
 30
0.0000
  0
SEQEND
  8
0
  0
POLYLINE
  8
248
 66
1
 10
0.0000
 20
0.0000
 30
0.0000
 40
0.2032
 41
0.2032
 70
0
  0
VERTEX
  8
248
 10
29.9466
 20
45.0850
 30
0.0000
 42
1.0000
  0
VERTEX
  8
248
 10
29.7434
 20
45.0850
 30
0.0000
  0
SEQEND
  8
0
  0
POLYLINE
  8
248
 66
1
 10
0.0000
 20
0.0000
 30
0.0000
 40
0.4064
 41
0.4064
 70
0
  0
VERTEX
  8
248
 10
29.8450
 20
38.7350
 30
0.0000
  0
VERTEX
  8
248
 10
36.1950
 20
38.7350
 30
0.0000
  0
SEQEND
  8
0
  0
POLYLINE
  8
248
 66
1
 10
0.0000
 20
0.0000
 30
0.0000
 40
0.2032
 41
0.2032
 70
0
  0
VERTEX
  8
248
 10
36.1950
 20
38.6334
 30
0.0000
 42
1.0000
  0
VERTEX
  8
248
 10
36.1950
 20
38.8366
 30
0.0000
  0
SEQEND
  8
0
  0
POLYLINE
  8
248
 66
1
 10
0.0000
 20
0.0000
 30
0.0000
 40
0.2032
 41
0.2032
 70
0
  0
VERTEX
  8
248
 10
29.8450
 20
38.8366
 30
0.0000
 42
1.0000
  0
VERTEX
  8
248
 10
29.8450
 20
38.6334
 30
0.0000
  0
SEQEND
  8
0
  0
POLYLINE
  8
248
 66
1
 10
0.0000
 20
0.0000
 30
0.0000
 40
0.4064
 41
0.4064
 70
0
  0
VERTEX
  8
248
 10
36.1950
 20
38.7350
 30
0.0000
  0
VERTEX
  8
248
 10
36.1950
 20
43.8150
 30
0.0000
  0
SEQEND
  8
0
  0
POLYLINE
  8
248
 66
1
 10
0.0000
 20
0.0000
 30
0.0000
 40
0.2032
 41
0.2032
 70
0
  0
VERTEX
  8
248
 10
36.2966
 20
43.8150
 30
0.0000
 42
1.0000
  0
VERTEX
  8
248
 10
36.0934
 20
43.8150
 30
0.0000
  0
SEQEND
  8
0
  0
POLYLINE
  8
248
 66
1
 10
0.0000
 20
0.0000
 30
0.0000
 40
0.2032
 41
0.2032
 70
0
  0
VERTEX
  8
248
 10
36.0934
 20
38.7350
 30
0.0000
 42
1.0000
  0
VERTEX
  8
248
 10
36.2966
 20
38.7350
 30
0.0000
  0
SEQEND
  8
0
  0
POLYLINE
  8
248
 66
1
 10
0.0000
 20
0.0000
 30
0.0000
 40
0.4064
 41
0.4064
 70
0
  0
VERTEX
  8
248
 10
36.1950
 20
43.8150
 30
0.0000
  0
VERTEX
  8
248
 10
36.1950
 20
45.0850
 30
0.0000
  0
SEQEND
  8
0
  0
POLYLINE
  8
248
 66
1
 10
0.0000
 20
0.0000
 30
0.0000
 40
0.2032
 41
0.2032
 70
0
  0
VERTEX
  8
248
 10
36.2966
 20
45.0850
 30
0.0000
 42
1.0000
  0
VERTEX
  8
248
 10
36.0934
 20
45.0850
 30
0.0000
  0
SEQEND
  8
0
  0
POLYLINE
  8
248
 66
1
 10
0.0000
 20
0.0000
 30
0.0000
 40
0.2032
 41
0.2032
 70
0
  0
VERTEX
  8
248
 10
36.0934
 20
43.8150
 30
0.0000
 42
1.0000
  0
VERTEX
  8
248
 10
36.2966
 20
43.8150
 30
0.0000
  0
SEQEND
  8
0
  0
POLYLINE
  8
248
 66
1
 10
0.0000
 20
0.0000
 30
0.0000
 40
0.4064
 41
0.4064
 70
0
  0
VERTEX
  8
248
 10
29.8450
 20
38.7350
 30
0.0000
  0
VERTEX
  8
248
 10
29.8450
 20
34.9250
 30
0.0000
  0
SEQEND
  8
0
  0
POLYLINE
  8
248
 66
1
 10
0.0000
 20
0.0000
 30
0.0000
 40
0.2032
 41
0.2032
 70
0
  0
VERTEX
  8
248
 10
29.7434
 20
34.9250
 30
0.0000
 42
1.0000
  0
VERTEX
  8
248
 10
29.9466
 20
34.9250
 30
0.0000
  0
SEQEND
  8
0
  0
POLYLINE
  8
248
 66
1
 10
0.0000
 20
0.0000
 30
0.0000
 40
0.2032
 41
0.2032
 70
0
  0
VERTEX
  8
248
 10
29.9466
 20
38.7350
 30
0.0000
 42
1.0000
  0
VERTEX
  8
248
 10
29.7434
 20
38.7350
 30
0.0000
  0
SEQEND
  8
0
  0
POLYLINE
  8
248
 66
1
 10
0.0000
 20
0.0000
 30
0.0000
 40
0.4064
 41
0.4064
 70
0
  0
VERTEX
  8
248
 10
36.1950
 20
32.3850
 30
0.0000
  0
VERTEX
  8
248
 10
36.1950
 20
37.4650
 30
0.0000
  0
SEQEND
  8
0
  0
POLYLINE
  8
248
 66
1
 10
0.0000
 20
0.0000
 30
0.0000
 40
0.2032
 41
0.2032
 70
0
  0
VERTEX
  8
248
 10
36.2966
 20
37.4650
 30
0.0000
 42
1.0000
  0
VERTEX
  8
248
 10
36.0934
 20
37.4650
 30
0.0000
  0
SEQEND
  8
0
  0
POLYLINE
  8
248
 66
1
 10
0.0000
 20
0.0000
 30
0.0000
 40
0.2032
 41
0.2032
 70
0
  0
VERTEX
  8
248
 10
36.0934
 20
32.3850
 30
0.0000
 42
1.0000
  0
VERTEX
  8
248
 10
36.2966
 20
32.3850
 30
0.0000
  0
SEQEND
  8
0
  0
POLYLINE
  8
248
 66
1
 10
0.0000
 20
0.0000
 30
0.0000
 40
0.4064
 41
0.4064
 70
0
  0
VERTEX
  8
248
 10
36.1950
 20
37.4650
 30
0.0000
  0
VERTEX
  8
248
 10
36.1950
 20
38.7350
 30
0.0000
  0
SEQEND
  8
0
  0
POLYLINE
  8
248
 66
1
 10
0.0000
 20
0.0000
 30
0.0000
 40
0.2032
 41
0.2032
 70
0
  0
VERTEX
  8
248
 10
36.2966
 20
38.7350
 30
0.0000
 42
1.0000
  0
VERTEX
  8
248
 10
36.0934
 20
38.7350
 30
0.0000
  0
SEQEND
  8
0
  0
POLYLINE
  8
248
 66
1
 10
0.0000
 20
0.0000
 30
0.0000
 40
0.2032
 41
0.2032
 70
0
  0
VERTEX
  8
248
 10
36.0934
 20
37.4650
 30
0.0000
 42
1.0000
  0
VERTEX
  8
248
 10
36.2966
 20
37.4650
 30
0.0000
  0
SEQEND
  8
0
  0
POLYLINE
  8
248
 66
1
 10
0.0000
 20
0.0000
 30
0.0000
 40
0.4064
 41
0.4064
 70
0
  0
VERTEX
  8
248
 10
31.1150
 20
57.7850
 30
0.0000
  0
VERTEX
  8
248
 10
31.1150
 20
62.8650
 30
0.0000
  0
SEQEND
  8
0
  0
POLYLINE
  8
248
 66
1
 10
0.0000
 20
0.0000
 30
0.0000
 40
0.2032
 41
0.2032
 70
0
  0
VERTEX
  8
248
 10
31.2166
 20
62.8650
 30
0.0000
 42
1.0000
  0
VERTEX
  8
248
 10
31.0134
 20
62.8650
 30
0.0000
  0
SEQEND
  8
0
  0
POLYLINE
  8
248
 66
1
 10
0.0000
 20
0.0000
 30
0.0000
 40
0.2032
 41
0.2032
 70
0
  0
VERTEX
  8
248
 10
31.0134
 20
57.7850
 30
0.0000
 42
1.0000
  0
VERTEX
  8
248
 10
31.2166
 20
57.7850
 30
0.0000
  0
SEQEND
  8
0
  0
POLYLINE
  8
248
 66
1
 10
0.0000
 20
0.0000
 30
0.0000
 40
0.4064
 41
0.4064
 70
0
  0
VERTEX
  8
248
 10
31.1150
 20
62.8650
 30
0.0000
  0
VERTEX
  8
248
 10
24.7650
 20
62.8650
 30
0.0000
  0
SEQEND
  8
0
  0
POLYLINE
  8
248
 66
1
 10
0.0000
 20
0.0000
 30
0.0000
 40
0.2032
 41
0.2032
 70
0
  0
VERTEX
  8
248
 10
24.7650
 20
62.9666
 30
0.0000
 42
1.0000
  0
VERTEX
  8
248
 10
24.7650
 20
62.7634
 30
0.0000
  0
SEQEND
  8
0
  0
POLYLINE
  8
248
 66
1
 10
0.0000
 20
0.0000
 30
0.0000
 40
0.2032
 41
0.2032
 70
0
  0
VERTEX
  8
248
 10
31.1150
 20
62.7634
 30
0.0000
 42
1.0000
  0
VERTEX
  8
248
 10
31.1150
 20
62.9666
 30
0.0000
  0
SEQEND
  8
0
  0
POLYLINE
  8
248
 66
1
 10
0.0000
 20
0.0000
 30
0.0000
 40
0.4064
 41
0.4064
 70
0
  0
VERTEX
  8
248
 10
24.7650
 20
62.8650
 30
0.0000
  0
VERTEX
  8
248
 10
24.7650
 20
56.5150
 30
0.0000
  0
SEQEND
  8
0
  0
POLYLINE
  8
248
 66
1
 10
0.0000
 20
0.0000
 30
0.0000
 40
0.2032
 41
0.2032
 70
0
  0
VERTEX
  8
248
 10
24.6634
 20
56.5150
 30
0.0000
 42
1.0000
  0
VERTEX
  8
248
 10
24.8666
 20
56.5150
 30
0.0000
  0
SEQEND
  8
0
  0
POLYLINE
  8
248
 66
1
 10
0.0000
 20
0.0000
 30
0.0000
 40
0.2032
 41
0.2032
 70
0
  0
VERTEX
  8
248
 10
24.8666
 20
62.8650
 30
0.0000
 42
1.0000
  0
VERTEX
  8
248
 10
24.6634
 20
62.8650
 30
0.0000
  0
SEQEND
  8
0
  0
POLYLINE
  8
248
 66
1
 10
0.0000
 20
0.0000
 30
0.0000
 40
0.4064
 41
0.4064
 70
0
  0
VERTEX
  8
248
 10
24.7650
 20
56.5150
 30
0.0000
  0
VERTEX
  8
248
 10
29.8450
 20
56.5150
 30
0.0000
  0
SEQEND
  8
0
  0
POLYLINE
  8
248
 66
1
 10
0.0000
 20
0.0000
 30
0.0000
 40
0.2032
 41
0.2032
 70
0
  0
VERTEX
  8
248
 10
29.8450
 20
56.4134
 30
0.0000
 42
1.0000
  0
VERTEX
  8
248
 10
29.8450
 20
56.6166
 30
0.0000
  0
SEQEND
  8
0
  0
POLYLINE
  8
248
 66
1
 10
0.0000
 20
0.0000
 30
0.0000
 40
0.2032
 41
0.2032
 70
0
  0
VERTEX
  8
248
 10
24.7650
 20
56.6166
 30
0.0000
 42
1.0000
  0
VERTEX
  8
248
 10
24.7650
 20
56.4134
 30
0.0000
  0
SEQEND
  8
0
  0
POLYLINE
  8
248
 66
1
 10
0.0000
 20
0.0000
 30
0.0000
 40
0.4064
 41
0.4064
 70
0
  0
VERTEX
  8
248
 10
24.7650
 20
56.5150
 30
0.0000
  0
VERTEX
  8
248
 10
18.4150
 20
56.5150
 30
0.0000
  0
SEQEND
  8
0
  0
POLYLINE
  8
248
 66
1
 10
0.0000
 20
0.0000
 30
0.0000
 40
0.2032
 41
0.2032
 70
0
  0
VERTEX
  8
248
 10
18.4150
 20
56.6166
 30
0.0000
 42
1.0000
  0
VERTEX
  8
248
 10
18.4150
 20
56.4134
 30
0.0000
  0
SEQEND
  8
0
  0
POLYLINE
  8
248
 66
1
 10
0.0000
 20
0.0000
 30
0.0000
 40
0.2032
 41
0.2032
 70
0
  0
VERTEX
  8
248
 10
24.7650
 20
56.4134
 30
0.0000
 42
1.0000
  0
VERTEX
  8
248
 10
24.7650
 20
56.6166
 30
0.0000
  0
SEQEND
  8
0
  0
POLYLINE
  8
248
 66
1
 10
0.0000
 20
0.0000
 30
0.0000
 40
0.4064
 41
0.4064
 70
0
  0
VERTEX
  8
248
 10
18.4150
 20
56.5150
 30
0.0000
  0
VERTEX
  8
248
 10
18.4150
 20
62.8650
 30
0.0000
  0
SEQEND
  8
0
  0
POLYLINE
  8
248
 66
1
 10
0.0000
 20
0.0000
 30
0.0000
 40
0.2032
 41
0.2032
 70
0
  0
VERTEX
  8
248
 10
18.5166
 20
62.8650
 30
0.0000
 42
1.0000
  0
VERTEX
  8
248
 10
18.3134
 20
62.8650
 30
0.0000
  0
SEQEND
  8
0
  0
POLYLINE
  8
248
 66
1
 10
0.0000
 20
0.0000
 30
0.0000
 40
0.2032
 41
0.2032
 70
0
  0
VERTEX
  8
248
 10
18.3134
 20
56.5150
 30
0.0000
 42
1.0000
  0
VERTEX
  8
248
 10
18.5166
 20
56.5150
 30
0.0000
  0
SEQEND
  8
0
  0
POLYLINE
  8
248
 66
1
 10
0.0000
 20
0.0000
 30
0.0000
 40
0.4064
 41
0.4064
 70
0
  0
VERTEX
  8
248
 10
18.4150
 20
62.8650
 30
0.0000
  0
VERTEX
  8
248
 10
24.7650
 20
62.8650
 30
0.0000
  0
SEQEND
  8
0
  0
POLYLINE
  8
248
 66
1
 10
0.0000
 20
0.0000
 30
0.0000
 40
0.2032
 41
0.2032
 70
0
  0
VERTEX
  8
248
 10
24.7650
 20
62.7634
 30
0.0000
 42
1.0000
  0
VERTEX
  8
248
 10
24.7650
 20
62.9666
 30
0.0000
  0
SEQEND
  8
0
  0
POLYLINE
  8
248
 66
1
 10
0.0000
 20
0.0000
 30
0.0000
 40
0.2032
 41
0.2032
 70
0
  0
VERTEX
  8
248
 10
18.4150
 20
62.9666
 30
0.0000
 42
1.0000
  0
VERTEX
  8
248
 10
18.4150
 20
62.7634
 30
0.0000
  0
SEQEND
  8
0
  0
POLYLINE
  8
248
 66
1
 10
0.0000
 20
0.0000
 30
0.0000
 40
0.4064
 41
0.4064
 70
0
  0
VERTEX
  8
248
 10
18.4150
 20
56.5150
 30
0.0000
  0
VERTEX
  8
248
 10
12.0650
 20
56.5150
 30
0.0000
  0
SEQEND
  8
0
  0
POLYLINE
  8
248
 66
1
 10
0.0000
 20
0.0000
 30
0.0000
 40
0.2032
 41
0.2032
 70
0
  0
VERTEX
  8
248
 10
12.0650
 20
56.6166
 30
0.0000
 42
1.0000
  0
VERTEX
  8
248
 10
12.0650
 20
56.4134
 30
0.0000
  0
SEQEND
  8
0
  0
POLYLINE
  8
248
 66
1
 10
0.0000
 20
0.0000
 30
0.0000
 40
0.2032
 41
0.2032
 70
0
  0
VERTEX
  8
248
 10
18.4150
 20
56.4134
 30
0.0000
 42
1.0000
  0
VERTEX
  8
248
 10
18.4150
 20
56.6166
 30
0.0000
  0
SEQEND
  8
0
  0
POLYLINE
  8
248
 66
1
 10
0.0000
 20
0.0000
 30
0.0000
 40
0.4064
 41
0.4064
 70
0
  0
VERTEX
  8
248
 10
12.0650
 20
56.5150
 30
0.0000
  0
VERTEX
  8
248
 10
12.0650
 20
62.8650
 30
0.0000
  0
SEQEND
  8
0
  0
POLYLINE
  8
248
 66
1
 10
0.0000
 20
0.0000
 30
0.0000
 40
0.2032
 41
0.2032
 70
0
  0
VERTEX
  8
248
 10
12.1666
 20
62.8650
 30
0.0000
 42
1.0000
  0
VERTEX
  8
248
 10
11.9634
 20
62.8650
 30
0.0000
  0
SEQEND
  8
0
  0
POLYLINE
  8
248
 66
1
 10
0.0000
 20
0.0000
 30
0.0000
 40
0.2032
 41
0.2032
 70
0
  0
VERTEX
  8
248
 10
11.9634
 20
56.5150
 30
0.0000
 42
1.0000
  0
VERTEX
  8
248
 10
12.1666
 20
56.5150
 30
0.0000
  0
SEQEND
  8
0
  0
POLYLINE
  8
248
 66
1
 10
0.0000
 20
0.0000
 30
0.0000
 40
0.4064
 41
0.4064
 70
0
  0
VERTEX
  8
248
 10
12.0650
 20
62.8650
 30
0.0000
  0
VERTEX
  8
248
 10
18.4150
 20
62.8650
 30
0.0000
  0
SEQEND
  8
0
  0
POLYLINE
  8
248
 66
1
 10
0.0000
 20
0.0000
 30
0.0000
 40
0.2032
 41
0.2032
 70
0
  0
VERTEX
  8
248
 10
18.4150
 20
62.7634
 30
0.0000
 42
1.0000
  0
VERTEX
  8
248
 10
18.4150
 20
62.9666
 30
0.0000
  0
SEQEND
  8
0
  0
POLYLINE
  8
248
 66
1
 10
0.0000
 20
0.0000
 30
0.0000
 40
0.2032
 41
0.2032
 70
0
  0
VERTEX
  8
248
 10
12.0650
 20
62.9666
 30
0.0000
 42
1.0000
  0
VERTEX
  8
248
 10
12.0650
 20
62.7634
 30
0.0000
  0
SEQEND
  8
0
  0
POLYLINE
  8
248
 66
1
 10
0.0000
 20
0.0000
 30
0.0000
 40
0.4064
 41
0.4064
 70
0
  0
VERTEX
  8
248
 10
12.0650
 20
56.5150
 30
0.0000
  0
VERTEX
  8
248
 10
6.9850
 20
56.5150
 30
0.0000
  0
SEQEND
  8
0
  0
POLYLINE
  8
248
 66
1
 10
0.0000
 20
0.0000
 30
0.0000
 40
0.2032
 41
0.2032
 70
0
  0
VERTEX
  8
248
 10
6.9850
 20
56.6166
 30
0.0000
 42
1.0000
  0
VERTEX
  8
248
 10
6.9850
 20
56.4134
 30
0.0000
  0
SEQEND
  8
0
  0
POLYLINE
  8
248
 66
1
 10
0.0000
 20
0.0000
 30
0.0000
 40
0.2032
 41
0.2032
 70
0
  0
VERTEX
  8
248
 10
12.0650
 20
56.4134
 30
0.0000
 42
1.0000
  0
VERTEX
  8
248
 10
12.0650
 20
56.6166
 30
0.0000
  0
SEQEND
  8
0
  0
POLYLINE
  8
248
 66
1
 10
0.0000
 20
0.0000
 30
0.0000
 40
0.4064
 41
0.4064
 70
0
  0
VERTEX
  8
248
 10
6.9850
 20
56.5150
 30
0.0000
  0
VERTEX
  8
248
 10
5.7150
 20
57.7850
 30
0.0000
  0
SEQEND
  8
0
  0
POLYLINE
  8
248
 66
1
 10
0.0000
 20
0.0000
 30
0.0000
 40
0.2032
 41
0.2032
 70
0
  0
VERTEX
  8
248
 10
5.7868
 20
57.8568
 30
0.0000
 42
1.0000
  0
VERTEX
  8
248
 10
5.6432
 20
57.7132
 30
0.0000
  0
SEQEND
  8
0
  0
POLYLINE
  8
248
 66
1
 10
0.0000
 20
0.0000
 30
0.0000
 40
0.2032
 41
0.2032
 70
0
  0
VERTEX
  8
248
 10
6.9132
 20
56.4432
 30
0.0000
 42
1.0000
  0
VERTEX
  8
248
 10
7.0568
 20
56.5868
 30
0.0000
  0
SEQEND
  8
0
  0
POLYLINE
  8
248
 66
1
 10
0.0000
 20
0.0000
 30
0.0000
 40
0.4064
 41
0.4064
 70
0
  0
VERTEX
  8
248
 10
5.7150
 20
57.7850
 30
0.0000
  0
VERTEX
  8
248
 10
5.7150
 20
62.8650
 30
0.0000
  0
SEQEND
  8
0
  0
POLYLINE
  8
248
 66
1
 10
0.0000
 20
0.0000
 30
0.0000
 40
0.2032
 41
0.2032
 70
0
  0
VERTEX
  8
248
 10
5.8166
 20
62.8650
 30
0.0000
 42
1.0000
  0
VERTEX
  8
248
 10
5.6134
 20
62.8650
 30
0.0000
  0
SEQEND
  8
0
  0
POLYLINE
  8
248
 66
1
 10
0.0000
 20
0.0000
 30
0.0000
 40
0.2032
 41
0.2032
 70
0
  0
VERTEX
  8
248
 10
5.6134
 20
57.7850
 30
0.0000
 42
1.0000
  0
VERTEX
  8
248
 10
5.8166
 20
57.7850
 30
0.0000
  0
SEQEND
  8
0
  0
POLYLINE
  8
248
 66
1
 10
0.0000
 20
0.0000
 30
0.0000
 40
0.4064
 41
0.4064
 70
0
  0
VERTEX
  8
248
 10
5.7150
 20
62.8650
 30
0.0000
  0
VERTEX
  8
248
 10
12.0650
 20
62.8650
 30
0.0000
  0
SEQEND
  8
0
  0
POLYLINE
  8
248
 66
1
 10
0.0000
 20
0.0000
 30
0.0000
 40
0.2032
 41
0.2032
 70
0
  0
VERTEX
  8
248
 10
12.0650
 20
62.7634
 30
0.0000
 42
1.0000
  0
VERTEX
  8
248
 10
12.0650
 20
62.9666
 30
0.0000
  0
SEQEND
  8
0
  0
POLYLINE
  8
248
 66
1
 10
0.0000
 20
0.0000
 30
0.0000
 40
0.2032
 41
0.2032
 70
0
  0
VERTEX
  8
248
 10
5.7150
 20
62.9666
 30
0.0000
 42
1.0000
  0
VERTEX
  8
248
 10
5.7150
 20
62.7634
 30
0.0000
  0
SEQEND
  8
0
  0
POLYLINE
  8
248
 66
1
 10
0.0000
 20
0.0000
 30
0.0000
 40
0.4064
 41
0.4064
 70
0
  0
VERTEX
  8
248
 10
5.7150
 20
57.7850
 30
0.0000
  0
VERTEX
  8
248
 10
0.6350
 20
57.7850
 30
0.0000
  0
SEQEND
  8
0
  0
POLYLINE
  8
248
 66
1
 10
0.0000
 20
0.0000
 30
0.0000
 40
0.2032
 41
0.2032
 70
0
  0
VERTEX
  8
248
 10
0.6350
 20
57.8866
 30
0.0000
 42
1.0000
  0
VERTEX
  8
248
 10
0.6350
 20
57.6834
 30
0.0000
  0
SEQEND
  8
0
  0
POLYLINE
  8
248
 66
1
 10
0.0000
 20
0.0000
 30
0.0000
 40
0.2032
 41
0.2032
 70
0
  0
VERTEX
  8
248
 10
5.7150
 20
57.6834
 30
0.0000
 42
1.0000
  0
VERTEX
  8
248
 10
5.7150
 20
57.8866
 30
0.0000
  0
SEQEND
  8
0
  0
POLYLINE
  8
248
 66
1
 10
0.0000
 20
0.0000
 30
0.0000
 40
0.4064
 41
0.4064
 70
0
  0
VERTEX
  8
248
 10
0.6350
 20
57.7850
 30
0.0000
  0
VERTEX
  8
248
 10
0.6350
 20
51.4350
 30
0.0000
  0
SEQEND
  8
0
  0
POLYLINE
  8
248
 66
1
 10
0.0000
 20
0.0000
 30
0.0000
 40
0.2032
 41
0.2032
 70
0
  0
VERTEX
  8
248
 10
0.5334
 20
51.4350
 30
0.0000
 42
1.0000
  0
VERTEX
  8
248
 10
0.7366
 20
51.4350
 30
0.0000
  0
SEQEND
  8
0
  0
POLYLINE
  8
248
 66
1
 10
0.0000
 20
0.0000
 30
0.0000
 40
0.2032
 41
0.2032
 70
0
  0
VERTEX
  8
248
 10
0.7366
 20
57.7850
 30
0.0000
 42
1.0000
  0
VERTEX
  8
248
 10
0.5334
 20
57.7850
 30
0.0000
  0
SEQEND
  8
0
  0
POLYLINE
  8
248
 66
1
 10
0.0000
 20
0.0000
 30
0.0000
 40
0.4064
 41
0.4064
 70
0
  0
VERTEX
  8
248
 10
0.6350
 20
51.4350
 30
0.0000
  0
VERTEX
  8
248
 10
6.9850
 20
51.4350
 30
0.0000
  0
SEQEND
  8
0
  0
POLYLINE
  8
248
 66
1
 10
0.0000
 20
0.0000
 30
0.0000
 40
0.2032
 41
0.2032
 70
0
  0
VERTEX
  8
248
 10
6.9850
 20
51.3334
 30
0.0000
 42
1.0000
  0
VERTEX
  8
248
 10
6.9850
 20
51.5366
 30
0.0000
  0
SEQEND
  8
0
  0
POLYLINE
  8
248
 66
1
 10
0.0000
 20
0.0000
 30
0.0000
 40
0.2032
 41
0.2032
 70
0
  0
VERTEX
  8
248
 10
0.6350
 20
51.5366
 30
0.0000
 42
1.0000
  0
VERTEX
  8
248
 10
0.6350
 20
51.3334
 30
0.0000
  0
SEQEND
  8
0
  0
POLYLINE
  8
248
 66
1
 10
0.0000
 20
0.0000
 30
0.0000
 40
0.4064
 41
0.4064
 70
0
  0
VERTEX
  8
248
 10
6.9850
 20
51.4350
 30
0.0000
  0
VERTEX
  8
248
 10
6.9850
 20
56.5150
 30
0.0000
  0
SEQEND
  8
0
  0
POLYLINE
  8
248
 66
1
 10
0.0000
 20
0.0000
 30
0.0000
 40
0.2032
 41
0.2032
 70
0
  0
VERTEX
  8
248
 10
7.0866
 20
56.5150
 30
0.0000
 42
1.0000
  0
VERTEX
  8
248
 10
6.8834
 20
56.5150
 30
0.0000
  0
SEQEND
  8
0
  0
POLYLINE
  8
248
 66
1
 10
0.0000
 20
0.0000
 30
0.0000
 40
0.2032
 41
0.2032
 70
0
  0
VERTEX
  8
248
 10
6.8834
 20
51.4350
 30
0.0000
 42
1.0000
  0
VERTEX
  8
248
 10
7.0866
 20
51.4350
 30
0.0000
  0
SEQEND
  8
0
  0
POLYLINE
  8
248
 66
1
 10
0.0000
 20
0.0000
 30
0.0000
 40
0.4064
 41
0.4064
 70
0
  0
VERTEX
  8
248
 10
0.6350
 20
51.4350
 30
0.0000
  0
VERTEX
  8
248
 10
0.6350
 20
45.0850
 30
0.0000
  0
SEQEND
  8
0
  0
POLYLINE
  8
248
 66
1
 10
0.0000
 20
0.0000
 30
0.0000
 40
0.2032
 41
0.2032
 70
0
  0
VERTEX
  8
248
 10
0.5334
 20
45.0850
 30
0.0000
 42
1.0000
  0
VERTEX
  8
248
 10
0.7366
 20
45.0850
 30
0.0000
  0
SEQEND
  8
0
  0
POLYLINE
  8
248
 66
1
 10
0.0000
 20
0.0000
 30
0.0000
 40
0.2032
 41
0.2032
 70
0
  0
VERTEX
  8
248
 10
0.7366
 20
51.4350
 30
0.0000
 42
1.0000
  0
VERTEX
  8
248
 10
0.5334
 20
51.4350
 30
0.0000
  0
SEQEND
  8
0
  0
POLYLINE
  8
248
 66
1
 10
0.0000
 20
0.0000
 30
0.0000
 40
0.4064
 41
0.4064
 70
0
  0
VERTEX
  8
248
 10
0.6350
 20
45.0850
 30
0.0000
  0
VERTEX
  8
248
 10
6.9850
 20
45.0850
 30
0.0000
  0
SEQEND
  8
0
  0
POLYLINE
  8
248
 66
1
 10
0.0000
 20
0.0000
 30
0.0000
 40
0.2032
 41
0.2032
 70
0
  0
VERTEX
  8
248
 10
6.9850
 20
44.9834
 30
0.0000
 42
1.0000
  0
VERTEX
  8
248
 10
6.9850
 20
45.1866
 30
0.0000
  0
SEQEND
  8
0
  0
POLYLINE
  8
248
 66
1
 10
0.0000
 20
0.0000
 30
0.0000
 40
0.2032
 41
0.2032
 70
0
  0
VERTEX
  8
248
 10
0.6350
 20
45.1866
 30
0.0000
 42
1.0000
  0
VERTEX
  8
248
 10
0.6350
 20
44.9834
 30
0.0000
  0
SEQEND
  8
0
  0
POLYLINE
  8
248
 66
1
 10
0.0000
 20
0.0000
 30
0.0000
 40
0.4064
 41
0.4064
 70
0
  0
VERTEX
  8
248
 10
6.9850
 20
45.0850
 30
0.0000
  0
VERTEX
  8
248
 10
6.9850
 20
51.4350
 30
0.0000
  0
SEQEND
  8
0
  0
POLYLINE
  8
248
 66
1
 10
0.0000
 20
0.0000
 30
0.0000
 40
0.2032
 41
0.2032
 70
0
  0
VERTEX
  8
248
 10
7.0866
 20
51.4350
 30
0.0000
 42
1.0000
  0
VERTEX
  8
248
 10
6.8834
 20
51.4350
 30
0.0000
  0
SEQEND
  8
0
  0
POLYLINE
  8
248
 66
1
 10
0.0000
 20
0.0000
 30
0.0000
 40
0.2032
 41
0.2032
 70
0
  0
VERTEX
  8
248
 10
6.8834
 20
45.0850
 30
0.0000
 42
1.0000
  0
VERTEX
  8
248
 10
7.0866
 20
45.0850
 30
0.0000
  0
SEQEND
  8
0
  0
POLYLINE
  8
248
 66
1
 10
0.0000
 20
0.0000
 30
0.0000
 40
0.4064
 41
0.4064
 70
0
  0
VERTEX
  8
248
 10
0.6350
 20
45.0850
 30
0.0000
  0
VERTEX
  8
248
 10
0.6350
 20
38.7350
 30
0.0000
  0
SEQEND
  8
0
  0
POLYLINE
  8
248
 66
1
 10
0.0000
 20
0.0000
 30
0.0000
 40
0.2032
 41
0.2032
 70
0
  0
VERTEX
  8
248
 10
0.5334
 20
38.7350
 30
0.0000
 42
1.0000
  0
VERTEX
  8
248
 10
0.7366
 20
38.7350
 30
0.0000
  0
SEQEND
  8
0
  0
POLYLINE
  8
248
 66
1
 10
0.0000
 20
0.0000
 30
0.0000
 40
0.2032
 41
0.2032
 70
0
  0
VERTEX
  8
248
 10
0.7366
 20
45.0850
 30
0.0000
 42
1.0000
  0
VERTEX
  8
248
 10
0.5334
 20
45.0850
 30
0.0000
  0
SEQEND
  8
0
  0
POLYLINE
  8
248
 66
1
 10
0.0000
 20
0.0000
 30
0.0000
 40
0.4064
 41
0.4064
 70
0
  0
VERTEX
  8
248
 10
0.6350
 20
38.7350
 30
0.0000
  0
VERTEX
  8
248
 10
6.9850
 20
38.7350
 30
0.0000
  0
SEQEND
  8
0
  0
POLYLINE
  8
248
 66
1
 10
0.0000
 20
0.0000
 30
0.0000
 40
0.2032
 41
0.2032
 70
0
  0
VERTEX
  8
248
 10
6.9850
 20
38.6334
 30
0.0000
 42
1.0000
  0
VERTEX
  8
248
 10
6.9850
 20
38.8366
 30
0.0000
  0
SEQEND
  8
0
  0
POLYLINE
  8
248
 66
1
 10
0.0000
 20
0.0000
 30
0.0000
 40
0.2032
 41
0.2032
 70
0
  0
VERTEX
  8
248
 10
0.6350
 20
38.8366
 30
0.0000
 42
1.0000
  0
VERTEX
  8
248
 10
0.6350
 20
38.6334
 30
0.0000
  0
SEQEND
  8
0
  0
POLYLINE
  8
248
 66
1
 10
0.0000
 20
0.0000
 30
0.0000
 40
0.4064
 41
0.4064
 70
0
  0
VERTEX
  8
248
 10
6.9850
 20
38.7350
 30
0.0000
  0
VERTEX
  8
248
 10
6.9850
 20
45.0850
 30
0.0000
  0
SEQEND
  8
0
  0
POLYLINE
  8
248
 66
1
 10
0.0000
 20
0.0000
 30
0.0000
 40
0.2032
 41
0.2032
 70
0
  0
VERTEX
  8
248
 10
7.0866
 20
45.0850
 30
0.0000
 42
1.0000
  0
VERTEX
  8
248
 10
6.8834
 20
45.0850
 30
0.0000
  0
SEQEND
  8
0
  0
POLYLINE
  8
248
 66
1
 10
0.0000
 20
0.0000
 30
0.0000
 40
0.2032
 41
0.2032
 70
0
  0
VERTEX
  8
248
 10
6.8834
 20
38.7350
 30
0.0000
 42
1.0000
  0
VERTEX
  8
248
 10
7.0866
 20
38.7350
 30
0.0000
  0
SEQEND
  8
0
  0
POLYLINE
  8
248
 66
1
 10
0.0000
 20
0.0000
 30
0.0000
 40
0.4064
 41
0.4064
 70
0
  0
VERTEX
  8
248
 10
0.6350
 20
38.7350
 30
0.0000
  0
VERTEX
  8
248
 10
0.6350
 20
32.3850
 30
0.0000
  0
SEQEND
  8
0
  0
POLYLINE
  8
248
 66
1
 10
0.0000
 20
0.0000
 30
0.0000
 40
0.2032
 41
0.2032
 70
0
  0
VERTEX
  8
248
 10
0.5334
 20
32.3850
 30
0.0000
 42
1.0000
  0
VERTEX
  8
248
 10
0.7366
 20
32.3850
 30
0.0000
  0
SEQEND
  8
0
  0
POLYLINE
  8
248
 66
1
 10
0.0000
 20
0.0000
 30
0.0000
 40
0.2032
 41
0.2032
 70
0
  0
VERTEX
  8
248
 10
0.7366
 20
38.7350
 30
0.0000
 42
1.0000
  0
VERTEX
  8
248
 10
0.5334
 20
38.7350
 30
0.0000
  0
SEQEND
  8
0
  0
POLYLINE
  8
248
 66
1
 10
0.0000
 20
0.0000
 30
0.0000
 40
0.4064
 41
0.4064
 70
0
  0
VERTEX
  8
248
 10
6.9850
 20
34.9250
 30
0.0000
  0
VERTEX
  8
248
 10
6.9850
 20
38.7350
 30
0.0000
  0
SEQEND
  8
0
  0
POLYLINE
  8
248
 66
1
 10
0.0000
 20
0.0000
 30
0.0000
 40
0.2032
 41
0.2032
 70
0
  0
VERTEX
  8
248
 10
7.0866
 20
38.7350
 30
0.0000
 42
1.0000
  0
VERTEX
  8
248
 10
6.8834
 20
38.7350
 30
0.0000
  0
SEQEND
  8
0
  0
POLYLINE
  8
248
 66
1
 10
0.0000
 20
0.0000
 30
0.0000
 40
0.2032
 41
0.2032
 70
0
  0
VERTEX
  8
248
 10
6.8834
 20
34.9250
 30
0.0000
 42
1.0000
  0
VERTEX
  8
248
 10
7.0866
 20
34.9250
 30
0.0000
  0
SEQEND
  8
0
  0
POLYLINE
  8
248
 66
1
 10
0.0000
 20
0.0000
 30
0.0000
 40
0.4064
 41
0.4064
 70
0
  0
VERTEX
  8
248
 10
0.6350
 20
31.1150
 30
0.0000
  0
VERTEX
  8
248
 10
0.6350
 20
24.7650
 30
0.0000
  0
SEQEND
  8
0
  0
POLYLINE
  8
248
 66
1
 10
0.0000
 20
0.0000
 30
0.0000
 40
0.2032
 41
0.2032
 70
0
  0
VERTEX
  8
248
 10
0.5334
 20
24.7650
 30
0.0000
 42
1.0000
  0
VERTEX
  8
248
 10
0.7366
 20
24.7650
 30
0.0000
  0
SEQEND
  8
0
  0
POLYLINE
  8
248
 66
1
 10
0.0000
 20
0.0000
 30
0.0000
 40
0.2032
 41
0.2032
 70
0
  0
VERTEX
  8
248
 10
0.7366
 20
31.1150
 30
0.0000
 42
1.0000
  0
VERTEX
  8
248
 10
0.5334
 20
31.1150
 30
0.0000
  0
SEQEND
  8
0
  0
POLYLINE
  8
248
 66
1
 10
0.0000
 20
0.0000
 30
0.0000
 40
0.4064
 41
0.4064
 70
0
  0
VERTEX
  8
248
 10
0.6350
 20
24.7650
 30
0.0000
  0
VERTEX
  8
248
 10
6.9850
 20
24.7650
 30
0.0000
  0
SEQEND
  8
0
  0
POLYLINE
  8
248
 66
1
 10
0.0000
 20
0.0000
 30
0.0000
 40
0.2032
 41
0.2032
 70
0
  0
VERTEX
  8
248
 10
6.9850
 20
24.6634
 30
0.0000
 42
1.0000
  0
VERTEX
  8
248
 10
6.9850
 20
24.8666
 30
0.0000
  0
SEQEND
  8
0
  0
POLYLINE
  8
248
 66
1
 10
0.0000
 20
0.0000
 30
0.0000
 40
0.2032
 41
0.2032
 70
0
  0
VERTEX
  8
248
 10
0.6350
 20
24.8666
 30
0.0000
 42
1.0000
  0
VERTEX
  8
248
 10
0.6350
 20
24.6634
 30
0.0000
  0
SEQEND
  8
0
  0
POLYLINE
  8
248
 66
1
 10
0.0000
 20
0.0000
 30
0.0000
 40
0.4064
 41
0.4064
 70
0
  0
VERTEX
  8
248
 10
6.9850
 20
24.7650
 30
0.0000
  0
VERTEX
  8
248
 10
6.9850
 20
28.5750
 30
0.0000
  0
SEQEND
  8
0
  0
POLYLINE
  8
248
 66
1
 10
0.0000
 20
0.0000
 30
0.0000
 40
0.2032
 41
0.2032
 70
0
  0
VERTEX
  8
248
 10
7.0866
 20
28.5750
 30
0.0000
 42
1.0000
  0
VERTEX
  8
248
 10
6.8834
 20
28.5750
 30
0.0000
  0
SEQEND
  8
0
  0
POLYLINE
  8
248
 66
1
 10
0.0000
 20
0.0000
 30
0.0000
 40
0.2032
 41
0.2032
 70
0
  0
VERTEX
  8
248
 10
6.8834
 20
24.7650
 30
0.0000
 42
1.0000
  0
VERTEX
  8
248
 10
7.0866
 20
24.7650
 30
0.0000
  0
SEQEND
  8
0
  0
POLYLINE
  8
248
 66
1
 10
0.0000
 20
0.0000
 30
0.0000
 40
0.4064
 41
0.4064
 70
0
  0
VERTEX
  8
248
 10
6.9850
 20
28.5750
 30
0.0000
  0
VERTEX
  8
248
 10
12.0650
 20
28.5750
 30
0.0000
  0
SEQEND
  8
0
  0
POLYLINE
  8
248
 66
1
 10
0.0000
 20
0.0000
 30
0.0000
 40
0.2032
 41
0.2032
 70
0
  0
VERTEX
  8
248
 10
12.0650
 20
28.4734
 30
0.0000
 42
1.0000
  0
VERTEX
  8
248
 10
12.0650
 20
28.6766
 30
0.0000
  0
SEQEND
  8
0
  0
POLYLINE
  8
248
 66
1
 10
0.0000
 20
0.0000
 30
0.0000
 40
0.2032
 41
0.2032
 70
0
  0
VERTEX
  8
248
 10
6.9850
 20
28.6766
 30
0.0000
 42
1.0000
  0
VERTEX
  8
248
 10
6.9850
 20
28.4734
 30
0.0000
  0
SEQEND
  8
0
  0
POLYLINE
  8
248
 66
1
 10
0.0000
 20
0.0000
 30
0.0000
 40
0.4064
 41
0.4064
 70
0
  0
VERTEX
  8
248
 10
12.0650
 20
28.5750
 30
0.0000
  0
VERTEX
  8
248
 10
12.0650
 20
34.9250
 30
0.0000
  0
SEQEND
  8
0
  0
POLYLINE
  8
248
 66
1
 10
0.0000
 20
0.0000
 30
0.0000
 40
0.2032
 41
0.2032
 70
0
  0
VERTEX
  8
248
 10
12.1666
 20
34.9250
 30
0.0000
 42
1.0000
  0
VERTEX
  8
248
 10
11.9634
 20
34.9250
 30
0.0000
  0
SEQEND
  8
0
  0
POLYLINE
  8
248
 66
1
 10
0.0000
 20
0.0000
 30
0.0000
 40
0.2032
 41
0.2032
 70
0
  0
VERTEX
  8
248
 10
11.9634
 20
28.5750
 30
0.0000
 42
1.0000
  0
VERTEX
  8
248
 10
12.1666
 20
28.5750
 30
0.0000
  0
SEQEND
  8
0
  0
POLYLINE
  8
248
 66
1
 10
0.0000
 20
0.0000
 30
0.0000
 40
0.4064
 41
0.4064
 70
0
  0
VERTEX
  8
248
 10
12.0650
 20
34.9250
 30
0.0000
  0
VERTEX
  8
248
 10
6.9850
 20
34.9250
 30
0.0000
  0
SEQEND
  8
0
  0
POLYLINE
  8
248
 66
1
 10
0.0000
 20
0.0000
 30
0.0000
 40
0.2032
 41
0.2032
 70
0
  0
VERTEX
  8
248
 10
6.9850
 20
35.0266
 30
0.0000
 42
1.0000
  0
VERTEX
  8
248
 10
6.9850
 20
34.8234
 30
0.0000
  0
SEQEND
  8
0
  0
POLYLINE
  8
248
 66
1
 10
0.0000
 20
0.0000
 30
0.0000
 40
0.2032
 41
0.2032
 70
0
  0
VERTEX
  8
248
 10
12.0650
 20
34.8234
 30
0.0000
 42
1.0000
  0
VERTEX
  8
248
 10
12.0650
 20
35.0266
 30
0.0000
  0
SEQEND
  8
0
  0
POLYLINE
  8
248
 66
1
 10
0.0000
 20
0.0000
 30
0.0000
 40
0.4064
 41
0.4064
 70
0
  0
VERTEX
  8
248
 10
0.6350
 20
31.1150
 30
0.0000
  0
VERTEX
  8
248
 10
5.7150
 20
31.1150
 30
0.0000
  0
SEQEND
  8
0
  0
POLYLINE
  8
248
 66
1
 10
0.0000
 20
0.0000
 30
0.0000
 40
0.2032
 41
0.2032
 70
0
  0
VERTEX
  8
248
 10
5.7150
 20
31.0134
 30
0.0000
 42
1.0000
  0
VERTEX
  8
248
 10
5.7150
 20
31.2166
 30
0.0000
  0
SEQEND
  8
0
  0
POLYLINE
  8
248
 66
1
 10
0.0000
 20
0.0000
 30
0.0000
 40
0.2032
 41
0.2032
 70
0
  0
VERTEX
  8
248
 10
0.6350
 20
31.2166
 30
0.0000
 42
1.0000
  0
VERTEX
  8
248
 10
0.6350
 20
31.0134
 30
0.0000
  0
SEQEND
  8
0
  0
POLYLINE
  8
248
 66
1
 10
0.0000
 20
0.0000
 30
0.0000
 40
0.4064
 41
0.4064
 70
0
  0
VERTEX
  8
248
 10
5.7150
 20
31.1150
 30
0.0000
  0
VERTEX
  8
248
 10
5.7150
 20
32.3850
 30
0.0000
  0
SEQEND
  8
0
  0
POLYLINE
  8
248
 66
1
 10
0.0000
 20
0.0000
 30
0.0000
 40
0.2032
 41
0.2032
 70
0
  0
VERTEX
  8
248
 10
5.8166
 20
32.3850
 30
0.0000
 42
1.0000
  0
VERTEX
  8
248
 10
5.6134
 20
32.3850
 30
0.0000
  0
SEQEND
  8
0
  0
POLYLINE
  8
248
 66
1
 10
0.0000
 20
0.0000
 30
0.0000
 40
0.2032
 41
0.2032
 70
0
  0
VERTEX
  8
248
 10
5.6134
 20
31.1150
 30
0.0000
 42
1.0000
  0
VERTEX
  8
248
 10
5.8166
 20
31.1150
 30
0.0000
  0
SEQEND
  8
0
  0
POLYLINE
  8
248
 66
1
 10
0.0000
 20
0.0000
 30
0.0000
 40
0.4064
 41
0.4064
 70
0
  0
VERTEX
  8
248
 10
5.7150
 20
32.3850
 30
0.0000
  0
VERTEX
  8
248
 10
0.6350
 20
32.3850
 30
0.0000
  0
SEQEND
  8
0
  0
POLYLINE
  8
248
 66
1
 10
0.0000
 20
0.0000
 30
0.0000
 40
0.2032
 41
0.2032
 70
0
  0
VERTEX
  8
248
 10
0.6350
 20
32.4866
 30
0.0000
 42
1.0000
  0
VERTEX
  8
248
 10
0.6350
 20
32.2834
 30
0.0000
  0
SEQEND
  8
0
  0
POLYLINE
  8
248
 66
1
 10
0.0000
 20
0.0000
 30
0.0000
 40
0.2032
 41
0.2032
 70
0
  0
VERTEX
  8
248
 10
5.7150
 20
32.2834
 30
0.0000
 42
1.0000
  0
VERTEX
  8
248
 10
5.7150
 20
32.4866
 30
0.0000
  0
SEQEND
  8
0
  0
POLYLINE
  8
248
 66
1
 10
0.0000
 20
0.0000
 30
0.0000
 40
0.4064
 41
0.4064
 70
0
  0
VERTEX
  8
248
 10
5.7150
 20
32.3850
 30
0.0000
  0
VERTEX
  8
248
 10
5.7150
 20
33.0200
 30
0.0000
  0
SEQEND
  8
0
  0
POLYLINE
  8
248
 66
1
 10
0.0000
 20
0.0000
 30
0.0000
 40
0.2032
 41
0.2032
 70
0
  0
VERTEX
  8
248
 10
5.8166
 20
33.0200
 30
0.0000
 42
1.0000
  0
VERTEX
  8
248
 10
5.6134
 20
33.0200
 30
0.0000
  0
SEQEND
  8
0
  0
POLYLINE
  8
248
 66
1
 10
0.0000
 20
0.0000
 30
0.0000
 40
0.2032
 41
0.2032
 70
0
  0
VERTEX
  8
248
 10
5.6134
 20
32.3850
 30
0.0000
 42
1.0000
  0
VERTEX
  8
248
 10
5.8166
 20
32.3850
 30
0.0000
  0
SEQEND
  8
0
  0
POLYLINE
  8
248
 66
1
 10
0.0000
 20
0.0000
 30
0.0000
 40
0.4064
 41
0.4064
 70
0
  0
VERTEX
  8
248
 10
5.7150
 20
33.0200
 30
0.0000
  0
VERTEX
  8
248
 10
6.9850
 20
34.2900
 30
0.0000
  0
SEQEND
  8
0
  0
POLYLINE
  8
248
 66
1
 10
0.0000
 20
0.0000
 30
0.0000
 40
0.2032
 41
0.2032
 70
0
  0
VERTEX
  8
248
 10
7.0568
 20
34.2182
 30
0.0000
 42
1.0000
  0
VERTEX
  8
248
 10
6.9132
 20
34.3618
 30
0.0000
  0
SEQEND
  8
0
  0
POLYLINE
  8
248
 66
1
 10
0.0000
 20
0.0000
 30
0.0000
 40
0.2032
 41
0.2032
 70
0
  0
VERTEX
  8
248
 10
5.6432
 20
33.0918
 30
0.0000
 42
1.0000
  0
VERTEX
  8
248
 10
5.7868
 20
32.9482
 30
0.0000
  0
SEQEND
  8
0
  0
POLYLINE
  8
248
 66
1
 10
0.0000
 20
0.0000
 30
0.0000
 40
0.4064
 41
0.4064
 70
0
  0
VERTEX
  8
248
 10
6.9850
 20
34.2900
 30
0.0000
  0
VERTEX
  8
248
 10
6.9850
 20
34.9250
 30
0.0000
  0
SEQEND
  8
0
  0
POLYLINE
  8
248
 66
1
 10
0.0000
 20
0.0000
 30
0.0000
 40
0.2032
 41
0.2032
 70
0
  0
VERTEX
  8
248
 10
7.0866
 20
34.9250
 30
0.0000
 42
1.0000
  0
VERTEX
  8
248
 10
6.8834
 20
34.9250
 30
0.0000
  0
SEQEND
  8
0
  0
POLYLINE
  8
248
 66
1
 10
0.0000
 20
0.0000
 30
0.0000
 40
0.2032
 41
0.2032
 70
0
  0
VERTEX
  8
248
 10
6.8834
 20
34.2900
 30
0.0000
 42
1.0000
  0
VERTEX
  8
248
 10
7.0866
 20
34.2900
 30
0.0000
  0
SEQEND
  8
0
  0
POLYLINE
  8
248
 66
1
 10
0.0000
 20
0.0000
 30
0.0000
 40
0.4064
 41
0.4064
 70
0
  0
VERTEX
  8
248
 10
5.7150
 20
31.1150
 30
0.0000
  0
VERTEX
  8
248
 10
5.7150
 20
30.4800
 30
0.0000
  0
SEQEND
  8
0
  0
POLYLINE
  8
248
 66
1
 10
0.0000
 20
0.0000
 30
0.0000
 40
0.2032
 41
0.2032
 70
0
  0
VERTEX
  8
248
 10
5.6134
 20
30.4800
 30
0.0000
 42
1.0000
  0
VERTEX
  8
248
 10
5.8166
 20
30.4800
 30
0.0000
  0
SEQEND
  8
0
  0
POLYLINE
  8
248
 66
1
 10
0.0000
 20
0.0000
 30
0.0000
 40
0.2032
 41
0.2032
 70
0
  0
VERTEX
  8
248
 10
5.8166
 20
31.1150
 30
0.0000
 42
1.0000
  0
VERTEX
  8
248
 10
5.6134
 20
31.1150
 30
0.0000
  0
SEQEND
  8
0
  0
POLYLINE
  8
248
 66
1
 10
0.0000
 20
0.0000
 30
0.0000
 40
0.4064
 41
0.4064
 70
0
  0
VERTEX
  8
248
 10
5.7150
 20
30.4800
 30
0.0000
  0
VERTEX
  8
248
 10
6.9850
 20
29.2100
 30
0.0000
  0
SEQEND
  8
0
  0
POLYLINE
  8
248
 66
1
 10
0.0000
 20
0.0000
 30
0.0000
 40
0.2032
 41
0.2032
 70
0
  0
VERTEX
  8
248
 10
6.9132
 20
29.1382
 30
0.0000
 42
1.0000
  0
VERTEX
  8
248
 10
7.0568
 20
29.2818
 30
0.0000
  0
SEQEND
  8
0
  0
POLYLINE
  8
248
 66
1
 10
0.0000
 20
0.0000
 30
0.0000
 40
0.2032
 41
0.2032
 70
0
  0
VERTEX
  8
248
 10
5.7868
 20
30.5518
 30
0.0000
 42
1.0000
  0
VERTEX
  8
248
 10
5.6432
 20
30.4082
 30
0.0000
  0
SEQEND
  8
0
  0
POLYLINE
  8
248
 66
1
 10
0.0000
 20
0.0000
 30
0.0000
 40
0.4064
 41
0.4064
 70
0
  0
VERTEX
  8
248
 10
6.9850
 20
29.2100
 30
0.0000
  0
VERTEX
  8
248
 10
6.9850
 20
28.5750
 30
0.0000
  0
SEQEND
  8
0
  0
POLYLINE
  8
248
 66
1
 10
0.0000
 20
0.0000
 30
0.0000
 40
0.2032
 41
0.2032
 70
0
  0
VERTEX
  8
248
 10
6.8834
 20
28.5750
 30
0.0000
 42
1.0000
  0
VERTEX
  8
248
 10
7.0866
 20
28.5750
 30
0.0000
  0
SEQEND
  8
0
  0
POLYLINE
  8
248
 66
1
 10
0.0000
 20
0.0000
 30
0.0000
 40
0.2032
 41
0.2032
 70
0
  0
VERTEX
  8
248
 10
7.0866
 20
29.2100
 30
0.0000
 42
1.0000
  0
VERTEX
  8
248
 10
6.8834
 20
29.2100
 30
0.0000
  0
SEQEND
  8
0
  0
POLYLINE
  8
248
 66
1
 10
0.0000
 20
0.0000
 30
0.0000
 40
0.4064
 41
0.4064
 70
0
  0
VERTEX
  8
248
 10
12.0650
 20
34.9250
 30
0.0000
  0
VERTEX
  8
248
 10
18.4150
 20
34.9250
 30
0.0000
  0
SEQEND
  8
0
  0
POLYLINE
  8
248
 66
1
 10
0.0000
 20
0.0000
 30
0.0000
 40
0.2032
 41
0.2032
 70
0
  0
VERTEX
  8
248
 10
18.4150
 20
34.8234
 30
0.0000
 42
1.0000
  0
VERTEX
  8
248
 10
18.4150
 20
35.0266
 30
0.0000
  0
SEQEND
  8
0
  0
POLYLINE
  8
248
 66
1
 10
0.0000
 20
0.0000
 30
0.0000
 40
0.2032
 41
0.2032
 70
0
  0
VERTEX
  8
248
 10
12.0650
 20
35.0266
 30
0.0000
 42
1.0000
  0
VERTEX
  8
248
 10
12.0650
 20
34.8234
 30
0.0000
  0
SEQEND
  8
0
  0
POLYLINE
  8
248
 66
1
 10
0.0000
 20
0.0000
 30
0.0000
 40
0.4064
 41
0.4064
 70
0
  0
VERTEX
  8
248
 10
18.4150
 20
34.9250
 30
0.0000
  0
VERTEX
  8
248
 10
18.4150
 20
28.5750
 30
0.0000
  0
SEQEND
  8
0
  0
POLYLINE
  8
248
 66
1
 10
0.0000
 20
0.0000
 30
0.0000
 40
0.2032
 41
0.2032
 70
0
  0
VERTEX
  8
248
 10
18.3134
 20
28.5750
 30
0.0000
 42
1.0000
  0
VERTEX
  8
248
 10
18.5166
 20
28.5750
 30
0.0000
  0
SEQEND
  8
0
  0
POLYLINE
  8
248
 66
1
 10
0.0000
 20
0.0000
 30
0.0000
 40
0.2032
 41
0.2032
 70
0
  0
VERTEX
  8
248
 10
18.5166
 20
34.9250
 30
0.0000
 42
1.0000
  0
VERTEX
  8
248
 10
18.3134
 20
34.9250
 30
0.0000
  0
SEQEND
  8
0
  0
POLYLINE
  8
248
 66
1
 10
0.0000
 20
0.0000
 30
0.0000
 40
0.4064
 41
0.4064
 70
0
  0
VERTEX
  8
248
 10
18.4150
 20
28.5750
 30
0.0000
  0
VERTEX
  8
248
 10
12.0650
 20
28.5750
 30
0.0000
  0
SEQEND
  8
0
  0
POLYLINE
  8
248
 66
1
 10
0.0000
 20
0.0000
 30
0.0000
 40
0.2032
 41
0.2032
 70
0
  0
VERTEX
  8
248
 10
12.0650
 20
28.6766
 30
0.0000
 42
1.0000
  0
VERTEX
  8
248
 10
12.0650
 20
28.4734
 30
0.0000
  0
SEQEND
  8
0
  0
POLYLINE
  8
248
 66
1
 10
0.0000
 20
0.0000
 30
0.0000
 40
0.2032
 41
0.2032
 70
0
  0
VERTEX
  8
248
 10
18.4150
 20
28.4734
 30
0.0000
 42
1.0000
  0
VERTEX
  8
248
 10
18.4150
 20
28.6766
 30
0.0000
  0
SEQEND
  8
0
  0
POLYLINE
  8
248
 66
1
 10
0.0000
 20
0.0000
 30
0.0000
 40
0.4064
 41
0.4064
 70
0
  0
VERTEX
  8
248
 10
18.4150
 20
34.9250
 30
0.0000
  0
VERTEX
  8
248
 10
24.7650
 20
34.9250
 30
0.0000
  0
SEQEND
  8
0
  0
POLYLINE
  8
248
 66
1
 10
0.0000
 20
0.0000
 30
0.0000
 40
0.2032
 41
0.2032
 70
0
  0
VERTEX
  8
248
 10
24.7650
 20
34.8234
 30
0.0000
 42
1.0000
  0
VERTEX
  8
248
 10
24.7650
 20
35.0266
 30
0.0000
  0
SEQEND
  8
0
  0
POLYLINE
  8
248
 66
1
 10
0.0000
 20
0.0000
 30
0.0000
 40
0.2032
 41
0.2032
 70
0
  0
VERTEX
  8
248
 10
18.4150
 20
35.0266
 30
0.0000
 42
1.0000
  0
VERTEX
  8
248
 10
18.4150
 20
34.8234
 30
0.0000
  0
SEQEND
  8
0
  0
POLYLINE
  8
248
 66
1
 10
0.0000
 20
0.0000
 30
0.0000
 40
0.4064
 41
0.4064
 70
0
  0
VERTEX
  8
248
 10
24.7650
 20
34.9250
 30
0.0000
  0
VERTEX
  8
248
 10
24.7650
 20
28.5750
 30
0.0000
  0
SEQEND
  8
0
  0
POLYLINE
  8
248
 66
1
 10
0.0000
 20
0.0000
 30
0.0000
 40
0.2032
 41
0.2032
 70
0
  0
VERTEX
  8
248
 10
24.6634
 20
28.5750
 30
0.0000
 42
1.0000
  0
VERTEX
  8
248
 10
24.8666
 20
28.5750
 30
0.0000
  0
SEQEND
  8
0
  0
POLYLINE
  8
248
 66
1
 10
0.0000
 20
0.0000
 30
0.0000
 40
0.2032
 41
0.2032
 70
0
  0
VERTEX
  8
248
 10
24.8666
 20
34.9250
 30
0.0000
 42
1.0000
  0
VERTEX
  8
248
 10
24.6634
 20
34.9250
 30
0.0000
  0
SEQEND
  8
0
  0
POLYLINE
  8
248
 66
1
 10
0.0000
 20
0.0000
 30
0.0000
 40
0.4064
 41
0.4064
 70
0
  0
VERTEX
  8
248
 10
24.7650
 20
28.5750
 30
0.0000
  0
VERTEX
  8
248
 10
18.4150
 20
28.5750
 30
0.0000
  0
SEQEND
  8
0
  0
POLYLINE
  8
248
 66
1
 10
0.0000
 20
0.0000
 30
0.0000
 40
0.2032
 41
0.2032
 70
0
  0
VERTEX
  8
248
 10
18.4150
 20
28.6766
 30
0.0000
 42
1.0000
  0
VERTEX
  8
248
 10
18.4150
 20
28.4734
 30
0.0000
  0
SEQEND
  8
0
  0
POLYLINE
  8
248
 66
1
 10
0.0000
 20
0.0000
 30
0.0000
 40
0.2032
 41
0.2032
 70
0
  0
VERTEX
  8
248
 10
24.7650
 20
28.4734
 30
0.0000
 42
1.0000
  0
VERTEX
  8
248
 10
24.7650
 20
28.6766
 30
0.0000
  0
SEQEND
  8
0
  0
POLYLINE
  8
248
 66
1
 10
0.0000
 20
0.0000
 30
0.0000
 40
0.4064
 41
0.4064
 70
0
  0
VERTEX
  8
248
 10
24.7650
 20
34.9250
 30
0.0000
  0
VERTEX
  8
248
 10
29.8450
 20
34.9250
 30
0.0000
  0
SEQEND
  8
0
  0
POLYLINE
  8
248
 66
1
 10
0.0000
 20
0.0000
 30
0.0000
 40
0.2032
 41
0.2032
 70
0
  0
VERTEX
  8
248
 10
29.8450
 20
34.8234
 30
0.0000
 42
1.0000
  0
VERTEX
  8
248
 10
29.8450
 20
35.0266
 30
0.0000
  0
SEQEND
  8
0
  0
POLYLINE
  8
248
 66
1
 10
0.0000
 20
0.0000
 30
0.0000
 40
0.2032
 41
0.2032
 70
0
  0
VERTEX
  8
248
 10
24.7650
 20
35.0266
 30
0.0000
 42
1.0000
  0
VERTEX
  8
248
 10
24.7650
 20
34.8234
 30
0.0000
  0
SEQEND
  8
0
  0
POLYLINE
  8
248
 66
1
 10
0.0000
 20
0.0000
 30
0.0000
 40
0.4064
 41
0.4064
 70
0
  0
VERTEX
  8
248
 10
29.8450
 20
34.9250
 30
0.0000
  0
VERTEX
  8
248
 10
29.8450
 20
34.2900
 30
0.0000
  0
SEQEND
  8
0
  0
POLYLINE
  8
248
 66
1
 10
0.0000
 20
0.0000
 30
0.0000
 40
0.2032
 41
0.2032
 70
0
  0
VERTEX
  8
248
 10
29.7434
 20
34.2900
 30
0.0000
 42
1.0000
  0
VERTEX
  8
248
 10
29.9466
 20
34.2900
 30
0.0000
  0
SEQEND
  8
0
  0
POLYLINE
  8
248
 66
1
 10
0.0000
 20
0.0000
 30
0.0000
 40
0.2032
 41
0.2032
 70
0
  0
VERTEX
  8
248
 10
29.9466
 20
34.9250
 30
0.0000
 42
1.0000
  0
VERTEX
  8
248
 10
29.7434
 20
34.9250
 30
0.0000
  0
SEQEND
  8
0
  0
POLYLINE
  8
248
 66
1
 10
0.0000
 20
0.0000
 30
0.0000
 40
0.4064
 41
0.4064
 70
0
  0
VERTEX
  8
248
 10
29.8450
 20
34.2900
 30
0.0000
  0
VERTEX
  8
248
 10
31.1150
 20
33.0200
 30
0.0000
  0
SEQEND
  8
0
  0
POLYLINE
  8
248
 66
1
 10
0.0000
 20
0.0000
 30
0.0000
 40
0.2032
 41
0.2032
 70
0
  0
VERTEX
  8
248
 10
31.0432
 20
32.9482
 30
0.0000
 42
1.0000
  0
VERTEX
  8
248
 10
31.1868
 20
33.0918
 30
0.0000
  0
SEQEND
  8
0
  0
POLYLINE
  8
248
 66
1
 10
0.0000
 20
0.0000
 30
0.0000
 40
0.2032
 41
0.2032
 70
0
  0
VERTEX
  8
248
 10
29.9168
 20
34.3618
 30
0.0000
 42
1.0000
  0
VERTEX
  8
248
 10
29.7732
 20
34.2182
 30
0.0000
  0
SEQEND
  8
0
  0
POLYLINE
  8
248
 66
1
 10
0.0000
 20
0.0000
 30
0.0000
 40
0.4064
 41
0.4064
 70
0
  0
VERTEX
  8
248
 10
31.1150
 20
33.0200
 30
0.0000
  0
VERTEX
  8
248
 10
31.1150
 20
32.3850
 30
0.0000
  0
SEQEND
  8
0
  0
POLYLINE
  8
248
 66
1
 10
0.0000
 20
0.0000
 30
0.0000
 40
0.2032
 41
0.2032
 70
0
  0
VERTEX
  8
248
 10
31.0134
 20
32.3850
 30
0.0000
 42
1.0000
  0
VERTEX
  8
248
 10
31.2166
 20
32.3850
 30
0.0000
  0
SEQEND
  8
0
  0
POLYLINE
  8
248
 66
1
 10
0.0000
 20
0.0000
 30
0.0000
 40
0.2032
 41
0.2032
 70
0
  0
VERTEX
  8
248
 10
31.2166
 20
33.0200
 30
0.0000
 42
1.0000
  0
VERTEX
  8
248
 10
31.0134
 20
33.0200
 30
0.0000
  0
SEQEND
  8
0
  0
POLYLINE
  8
248
 66
1
 10
0.0000
 20
0.0000
 30
0.0000
 40
0.4064
 41
0.4064
 70
0
  0
VERTEX
  8
248
 10
31.1150
 20
32.3850
 30
0.0000
  0
VERTEX
  8
248
 10
31.1150
 20
31.1150
 30
0.0000
  0
SEQEND
  8
0
  0
POLYLINE
  8
248
 66
1
 10
0.0000
 20
0.0000
 30
0.0000
 40
0.2032
 41
0.2032
 70
0
  0
VERTEX
  8
248
 10
31.0134
 20
31.1150
 30
0.0000
 42
1.0000
  0
VERTEX
  8
248
 10
31.2166
 20
31.1150
 30
0.0000
  0
SEQEND
  8
0
  0
POLYLINE
  8
248
 66
1
 10
0.0000
 20
0.0000
 30
0.0000
 40
0.2032
 41
0.2032
 70
0
  0
VERTEX
  8
248
 10
31.2166
 20
32.3850
 30
0.0000
 42
1.0000
  0
VERTEX
  8
248
 10
31.0134
 20
32.3850
 30
0.0000
  0
SEQEND
  8
0
  0
POLYLINE
  8
248
 66
1
 10
0.0000
 20
0.0000
 30
0.0000
 40
0.4064
 41
0.4064
 70
0
  0
VERTEX
  8
248
 10
31.1150
 20
31.1150
 30
0.0000
  0
VERTEX
  8
248
 10
31.1150
 20
30.4800
 30
0.0000
  0
SEQEND
  8
0
  0
POLYLINE
  8
248
 66
1
 10
0.0000
 20
0.0000
 30
0.0000
 40
0.2032
 41
0.2032
 70
0
  0
VERTEX
  8
248
 10
31.0134
 20
30.4800
 30
0.0000
 42
1.0000
  0
VERTEX
  8
248
 10
31.2166
 20
30.4800
 30
0.0000
  0
SEQEND
  8
0
  0
POLYLINE
  8
248
 66
1
 10
0.0000
 20
0.0000
 30
0.0000
 40
0.2032
 41
0.2032
 70
0
  0
VERTEX
  8
248
 10
31.2166
 20
31.1150
 30
0.0000
 42
1.0000
  0
VERTEX
  8
248
 10
31.0134
 20
31.1150
 30
0.0000
  0
SEQEND
  8
0
  0
POLYLINE
  8
248
 66
1
 10
0.0000
 20
0.0000
 30
0.0000
 40
0.4064
 41
0.4064
 70
0
  0
VERTEX
  8
248
 10
31.1150
 20
30.4800
 30
0.0000
  0
VERTEX
  8
248
 10
29.8450
 20
29.2100
 30
0.0000
  0
SEQEND
  8
0
  0
POLYLINE
  8
248
 66
1
 10
0.0000
 20
0.0000
 30
0.0000
 40
0.2032
 41
0.2032
 70
0
  0
VERTEX
  8
248
 10
29.7732
 20
29.2818
 30
0.0000
 42
1.0000
  0
VERTEX
  8
248
 10
29.9168
 20
29.1382
 30
0.0000
  0
SEQEND
  8
0
  0
POLYLINE
  8
248
 66
1
 10
0.0000
 20
0.0000
 30
0.0000
 40
0.2032
 41
0.2032
 70
0
  0
VERTEX
  8
248
 10
31.1868
 20
30.4082
 30
0.0000
 42
1.0000
  0
VERTEX
  8
248
 10
31.0432
 20
30.5518
 30
0.0000
  0
SEQEND
  8
0
  0
POLYLINE
  8
248
 66
1
 10
0.0000
 20
0.0000
 30
0.0000
 40
0.4064
 41
0.4064
 70
0
  0
VERTEX
  8
248
 10
29.8450
 20
29.2100
 30
0.0000
  0
VERTEX
  8
248
 10
29.8450
 20
28.5750
 30
0.0000
  0
SEQEND
  8
0
  0
POLYLINE
  8
248
 66
1
 10
0.0000
 20
0.0000
 30
0.0000
 40
0.2032
 41
0.2032
 70
0
  0
VERTEX
  8
248
 10
29.7434
 20
28.5750
 30
0.0000
 42
1.0000
  0
VERTEX
  8
248
 10
29.9466
 20
28.5750
 30
0.0000
  0
SEQEND
  8
0
  0
POLYLINE
  8
248
 66
1
 10
0.0000
 20
0.0000
 30
0.0000
 40
0.2032
 41
0.2032
 70
0
  0
VERTEX
  8
248
 10
29.9466
 20
29.2100
 30
0.0000
 42
1.0000
  0
VERTEX
  8
248
 10
29.7434
 20
29.2100
 30
0.0000
  0
SEQEND
  8
0
  0
POLYLINE
  8
248
 66
1
 10
0.0000
 20
0.0000
 30
0.0000
 40
0.4064
 41
0.4064
 70
0
  0
VERTEX
  8
248
 10
29.8450
 20
28.5750
 30
0.0000
  0
VERTEX
  8
248
 10
24.7650
 20
28.5750
 30
0.0000
  0
SEQEND
  8
0
  0
POLYLINE
  8
248
 66
1
 10
0.0000
 20
0.0000
 30
0.0000
 40
0.2032
 41
0.2032
 70
0
  0
VERTEX
  8
248
 10
24.7650
 20
28.6766
 30
0.0000
 42
1.0000
  0
VERTEX
  8
248
 10
24.7650
 20
28.4734
 30
0.0000
  0
SEQEND
  8
0
  0
POLYLINE
  8
248
 66
1
 10
0.0000
 20
0.0000
 30
0.0000
 40
0.2032
 41
0.2032
 70
0
  0
VERTEX
  8
248
 10
29.8450
 20
28.4734
 30
0.0000
 42
1.0000
  0
VERTEX
  8
248
 10
29.8450
 20
28.6766
 30
0.0000
  0
SEQEND
  8
0
  0
POLYLINE
  8
248
 66
1
 10
0.0000
 20
0.0000
 30
0.0000
 40
0.4064
 41
0.4064
 70
0
  0
VERTEX
  8
248
 10
31.1150
 20
32.3850
 30
0.0000
  0
VERTEX
  8
248
 10
36.1950
 20
32.3850
 30
0.0000
  0
SEQEND
  8
0
  0
POLYLINE
  8
248
 66
1
 10
0.0000
 20
0.0000
 30
0.0000
 40
0.2032
 41
0.2032
 70
0
  0
VERTEX
  8
248
 10
36.1950
 20
32.2834
 30
0.0000
 42
1.0000
  0
VERTEX
  8
248
 10
36.1950
 20
32.4866
 30
0.0000
  0
SEQEND
  8
0
  0
POLYLINE
  8
248
 66
1
 10
0.0000
 20
0.0000
 30
0.0000
 40
0.2032
 41
0.2032
 70
0
  0
VERTEX
  8
248
 10
31.1150
 20
32.4866
 30
0.0000
 42
1.0000
  0
VERTEX
  8
248
 10
31.1150
 20
32.2834
 30
0.0000
  0
SEQEND
  8
0
  0
POLYLINE
  8
248
 66
1
 10
0.0000
 20
0.0000
 30
0.0000
 40
0.4064
 41
0.4064
 70
0
  0
VERTEX
  8
248
 10
31.1150
 20
31.1150
 30
0.0000
  0
VERTEX
  8
248
 10
36.1950
 20
31.1150
 30
0.0000
  0
SEQEND
  8
0
  0
POLYLINE
  8
248
 66
1
 10
0.0000
 20
0.0000
 30
0.0000
 40
0.2032
 41
0.2032
 70
0
  0
VERTEX
  8
248
 10
36.1950
 20
31.0134
 30
0.0000
 42
1.0000
  0
VERTEX
  8
248
 10
36.1950
 20
31.2166
 30
0.0000
  0
SEQEND
  8
0
  0
POLYLINE
  8
248
 66
1
 10
0.0000
 20
0.0000
 30
0.0000
 40
0.2032
 41
0.2032
 70
0
  0
VERTEX
  8
248
 10
31.1150
 20
31.2166
 30
0.0000
 42
1.0000
  0
VERTEX
  8
248
 10
31.1150
 20
31.0134
 30
0.0000
  0
SEQEND
  8
0
  0
POLYLINE
  8
248
 66
1
 10
0.0000
 20
0.0000
 30
0.0000
 40
0.4064
 41
0.4064
 70
0
  0
VERTEX
  8
248
 10
36.1950
 20
31.1150
 30
0.0000
  0
VERTEX
  8
248
 10
36.1950
 20
24.7650
 30
0.0000
  0
SEQEND
  8
0
  0
POLYLINE
  8
248
 66
1
 10
0.0000
 20
0.0000
 30
0.0000
 40
0.2032
 41
0.2032
 70
0
  0
VERTEX
  8
248
 10
36.0934
 20
24.7650
 30
0.0000
 42
1.0000
  0
VERTEX
  8
248
 10
36.2966
 20
24.7650
 30
0.0000
  0
SEQEND
  8
0
  0
POLYLINE
  8
248
 66
1
 10
0.0000
 20
0.0000
 30
0.0000
 40
0.2032
 41
0.2032
 70
0
  0
VERTEX
  8
248
 10
36.2966
 20
31.1150
 30
0.0000
 42
1.0000
  0
VERTEX
  8
248
 10
36.0934
 20
31.1150
 30
0.0000
  0
SEQEND
  8
0
  0
POLYLINE
  8
248
 66
1
 10
0.0000
 20
0.0000
 30
0.0000
 40
0.4064
 41
0.4064
 70
0
  0
VERTEX
  8
248
 10
36.1950
 20
24.7650
 30
0.0000
  0
VERTEX
  8
248
 10
29.8450
 20
24.7650
 30
0.0000
  0
SEQEND
  8
0
  0
POLYLINE
  8
248
 66
1
 10
0.0000
 20
0.0000
 30
0.0000
 40
0.2032
 41
0.2032
 70
0
  0
VERTEX
  8
248
 10
29.8450
 20
24.8666
 30
0.0000
 42
1.0000
  0
VERTEX
  8
248
 10
29.8450
 20
24.6634
 30
0.0000
  0
SEQEND
  8
0
  0
POLYLINE
  8
248
 66
1
 10
0.0000
 20
0.0000
 30
0.0000
 40
0.2032
 41
0.2032
 70
0
  0
VERTEX
  8
248
 10
36.1950
 20
24.6634
 30
0.0000
 42
1.0000
  0
VERTEX
  8
248
 10
36.1950
 20
24.8666
 30
0.0000
  0
SEQEND
  8
0
  0
POLYLINE
  8
248
 66
1
 10
0.0000
 20
0.0000
 30
0.0000
 40
0.4064
 41
0.4064
 70
0
  0
VERTEX
  8
248
 10
29.8450
 20
24.7650
 30
0.0000
  0
VERTEX
  8
248
 10
29.8450
 20
28.5750
 30
0.0000
  0
SEQEND
  8
0
  0
POLYLINE
  8
248
 66
1
 10
0.0000
 20
0.0000
 30
0.0000
 40
0.2032
 41
0.2032
 70
0
  0
VERTEX
  8
248
 10
29.9466
 20
28.5750
 30
0.0000
 42
1.0000
  0
VERTEX
  8
248
 10
29.7434
 20
28.5750
 30
0.0000
  0
SEQEND
  8
0
  0
POLYLINE
  8
248
 66
1
 10
0.0000
 20
0.0000
 30
0.0000
 40
0.2032
 41
0.2032
 70
0
  0
VERTEX
  8
248
 10
29.7434
 20
24.7650
 30
0.0000
 42
1.0000
  0
VERTEX
  8
248
 10
29.9466
 20
24.7650
 30
0.0000
  0
SEQEND
  8
0
  0
POLYLINE
  8
248
 66
1
 10
0.0000
 20
0.0000
 30
0.0000
 40
0.4064
 41
0.4064
 70
0
  0
VERTEX
  8
248
 10
37.4650
 20
43.8150
 30
0.0000
  0
VERTEX
  8
248
 10
37.4650
 20
37.4650
 30
0.0000
  0
SEQEND
  8
0
  0
POLYLINE
  8
248
 66
1
 10
0.0000
 20
0.0000
 30
0.0000
 40
0.2032
 41
0.2032
 70
0
  0
VERTEX
  8
248
 10
37.3634
 20
37.4650
 30
0.0000
 42
1.0000
  0
VERTEX
  8
248
 10
37.5666
 20
37.4650
 30
0.0000
  0
SEQEND
  8
0
  0
POLYLINE
  8
248
 66
1
 10
0.0000
 20
0.0000
 30
0.0000
 40
0.2032
 41
0.2032
 70
0
  0
VERTEX
  8
248
 10
37.5666
 20
43.8150
 30
0.0000
 42
1.0000
  0
VERTEX
  8
248
 10
37.3634
 20
43.8150
 30
0.0000
  0
SEQEND
  8
0
  0
POLYLINE
  8
248
 66
1
 10
0.0000
 20
0.0000
 30
0.0000
 40
0.4064
 41
0.4064
 70
0
  0
VERTEX
  8
248
 10
37.4650
 20
37.4650
 30
0.0000
  0
VERTEX
  8
248
 10
43.8150
 20
37.4650
 30
0.0000
  0
SEQEND
  8
0
  0
POLYLINE
  8
248
 66
1
 10
0.0000
 20
0.0000
 30
0.0000
 40
0.2032
 41
0.2032
 70
0
  0
VERTEX
  8
248
 10
43.8150
 20
37.3634
 30
0.0000
 42
1.0000
  0
VERTEX
  8
248
 10
43.8150
 20
37.5666
 30
0.0000
  0
SEQEND
  8
0
  0
POLYLINE
  8
248
 66
1
 10
0.0000
 20
0.0000
 30
0.0000
 40
0.2032
 41
0.2032
 70
0
  0
VERTEX
  8
248
 10
37.4650
 20
37.5666
 30
0.0000
 42
1.0000
  0
VERTEX
  8
248
 10
37.4650
 20
37.3634
 30
0.0000
  0
SEQEND
  8
0
  0
POLYLINE
  8
248
 66
1
 10
0.0000
 20
0.0000
 30
0.0000
 40
0.4064
 41
0.4064
 70
0
  0
VERTEX
  8
248
 10
43.8150
 20
37.4650
 30
0.0000
  0
VERTEX
  8
248
 10
43.8150
 20
43.8150
 30
0.0000
  0
SEQEND
  8
0
  0
POLYLINE
  8
248
 66
1
 10
0.0000
 20
0.0000
 30
0.0000
 40
0.2032
 41
0.2032
 70
0
  0
VERTEX
  8
248
 10
43.9166
 20
43.8150
 30
0.0000
 42
1.0000
  0
VERTEX
  8
248
 10
43.7134
 20
43.8150
 30
0.0000
  0
SEQEND
  8
0
  0
POLYLINE
  8
248
 66
1
 10
0.0000
 20
0.0000
 30
0.0000
 40
0.2032
 41
0.2032
 70
0
  0
VERTEX
  8
248
 10
43.7134
 20
37.4650
 30
0.0000
 42
1.0000
  0
VERTEX
  8
248
 10
43.9166
 20
37.4650
 30
0.0000
  0
SEQEND
  8
0
  0
POLYLINE
  8
248
 66
1
 10
0.0000
 20
0.0000
 30
0.0000
 40
0.4064
 41
0.4064
 70
0
  0
VERTEX
  8
248
 10
43.8150
 20
43.8150
 30
0.0000
  0
VERTEX
  8
248
 10
37.4650
 20
43.8150
 30
0.0000
  0
SEQEND
  8
0
  0
POLYLINE
  8
248
 66
1
 10
0.0000
 20
0.0000
 30
0.0000
 40
0.2032
 41
0.2032
 70
0
  0
VERTEX
  8
248
 10
37.4650
 20
43.9166
 30
0.0000
 42
1.0000
  0
VERTEX
  8
248
 10
37.4650
 20
43.7134
 30
0.0000
  0
SEQEND
  8
0
  0
POLYLINE
  8
248
 66
1
 10
0.0000
 20
0.0000
 30
0.0000
 40
0.2032
 41
0.2032
 70
0
  0
VERTEX
  8
248
 10
43.8150
 20
43.7134
 30
0.0000
 42
1.0000
  0
VERTEX
  8
248
 10
43.8150
 20
43.9166
 30
0.0000
  0
SEQEND
  8
0
  0
POLYLINE
  8
248
 66
1
 10
0.0000
 20
0.0000
 30
0.0000
 40
0.4064
 41
0.4064
 70
0
  0
VERTEX
  8
248
 10
37.4650
 20
43.8150
 30
0.0000
  0
VERTEX
  8
248
 10
36.1950
 20
43.8150
 30
0.0000
  0
SEQEND
  8
0
  0
POLYLINE
  8
248
 66
1
 10
0.0000
 20
0.0000
 30
0.0000
 40
0.2032
 41
0.2032
 70
0
  0
VERTEX
  8
248
 10
36.1950
 20
43.9166
 30
0.0000
 42
1.0000
  0
VERTEX
  8
248
 10
36.1950
 20
43.7134
 30
0.0000
  0
SEQEND
  8
0
  0
POLYLINE
  8
248
 66
1
 10
0.0000
 20
0.0000
 30
0.0000
 40
0.2032
 41
0.2032
 70
0
  0
VERTEX
  8
248
 10
37.4650
 20
43.7134
 30
0.0000
 42
1.0000
  0
VERTEX
  8
248
 10
37.4650
 20
43.9166
 30
0.0000
  0
SEQEND
  8
0
  0
POLYLINE
  8
248
 66
1
 10
0.0000
 20
0.0000
 30
0.0000
 40
0.4064
 41
0.4064
 70
0
  0
VERTEX
  8
248
 10
37.4650
 20
37.4650
 30
0.0000
  0
VERTEX
  8
248
 10
36.1950
 20
37.4650
 30
0.0000
  0
SEQEND
  8
0
  0
POLYLINE
  8
248
 66
1
 10
0.0000
 20
0.0000
 30
0.0000
 40
0.2032
 41
0.2032
 70
0
  0
VERTEX
  8
248
 10
36.1950
 20
37.5666
 30
0.0000
 42
1.0000
  0
VERTEX
  8
248
 10
36.1950
 20
37.3634
 30
0.0000
  0
SEQEND
  8
0
  0
POLYLINE
  8
248
 66
1
 10
0.0000
 20
0.0000
 30
0.0000
 40
0.2032
 41
0.2032
 70
0
  0
VERTEX
  8
248
 10
37.4650
 20
37.3634
 30
0.0000
 42
1.0000
  0
VERTEX
  8
248
 10
37.4650
 20
37.5666
 30
0.0000
  0
SEQEND
  8
0
  0
ENDSEC
  0
EOF
